<?xml version="1.0" ?>
<!DOCTYPE svg  PUBLIC '-//W3C//DTD SVG 1.1//EN'  'http://www.w3.org/Graphics/SVG/1.1/DTD/svg11.dtd'>
<!-- Uploaded to: SVG Repo, www.svgrepo.com, Generator: SVG Repo Mixer Tools -->
<svg fill="#000000" width="800px" height="800px" viewBox="0 0 64 64" style="fill-rule:evenodd;clip-rule:evenodd;stroke-linejoin:round;stroke-miterlimit:2;" version="1.1" xml:space="preserve" xmlns="http://www.w3.org/2000/svg" xmlns:serif="http://www.serif.com/" xmlns:xlink="http://www.w3.org/1999/xlink">
<g id="ICON">
<path d="M32,37c-6.623,-0 -12,5.377 -12,12c0,6.623 5.377,12 12,12c6.623,-0 12,-5.377 12,-12c-0,-6.623 -5.377,-12 -12,-12Zm0,2c5.519,-0 10,4.481 10,10c-0,5.519 -4.481,10 -10,10c-5.519,-0 -10,-4.481 -10,-10c0,-5.519 4.481,-10 10,-10Zm-1,6.464l0,9.536c0,0.552 0.448,1 1,1c0.552,-0 1,-0.448 1,-1l0,-9.636l3.293,3.293c0.39,0.39 1.024,0.39 1.414,-0c0.39,-0.39 0.39,-1.024 0,-1.414l-4.95,-4.95c-0.39,-0.391 -1.023,-0.391 -1.414,-0l-4.95,4.95c-0.39,0.39 -0.39,1.024 0,1.414c0.391,0.39 1.024,0.39 1.415,-0l3.192,-3.193Zm-19,-14.464l-0,21c-0,0.796 0.316,1.559 0.879,2.121c0.562,0.563 1.325,0.879 2.121,0.879c1.392,0 3,0 3,0c0.552,-0 1,-0.448 1,-1c-0,-0.552 -0.448,-1 -1,-1c-0,0 -1.608,0 -3,0c-0.265,0 -0.52,-0.105 -0.707,-0.293c-0.188,-0.187 -0.293,-0.442 -0.293,-0.707l-0,-21c0,-0.552 -0.448,-1 -1,-1c-0.552,-0 -1,0.448 -1,1Zm0.007,-21.493c-0.002,0.019 -0.004,0.039 -0.005,0.058c-0.001,-0.022 -0.002,-0.043 -0.002,-0.065l-0,17.5c0,0.552 0.448,1 1,1c0.552,-0 1,-0.448 1,-1l-0,-12.81c1.209,1.16 2.821,1.81 4.5,1.81l17.537,-0l0,6l-14.537,-0c-0.796,-0 -1.559,0.316 -2.121,0.879c-0.563,0.562 -0.879,1.325 -0.879,2.121l-0,5.148c0,1.657 1.343,3 3,3l18.5,0c1.657,0 3,-1.343 3,-3l-0,-4.414l3.33,3.008c0.293,0.265 0.715,0.332 1.076,0.172c0.361,-0.161 0.594,-0.519 0.594,-0.914l-0,-12l1,0c0.552,0 1,0.448 1,1c-0,6.699 -0,28.301 0,35c-0,0.265 -0.105,0.52 -0.293,0.707c-0.187,0.188 -0.442,0.293 -0.707,0.293l-3,0c-0.552,-0 -1,0.448 -1,1c-0,0.552 0.448,1 1,1l3,0c0.796,0 1.559,-0.316 2.121,-0.879c0.563,-0.562 0.879,-1.325 0.879,-2.121c-0,-6.699 -0,-28.301 -0,-35c-0,-1.657 -1.343,-3 -3,-3l-1,0l-0,-10c0,-0.552 -0.448,-1 -1,-1l-28.5,-0c-1.724,-0 -3.377,0.685 -4.596,1.904c-1.219,1.219 -1.904,2.872 -1.904,4.596l0.007,0.007Zm24.03,14.493l-14.537,-0c-0.265,-0 -0.52,0.105 -0.707,0.293c-0.188,0.187 -0.293,0.442 -0.293,0.707c-0,0 -0,5.148 0,5.148c0,0.552 0.448,1 1,1c0,0 18.5,0 18.5,0c0.552,0 1,-0.448 1,-1l-0,-4.38l-3.293,2.974c-0.293,0.265 -0.715,0.332 -1.076,0.172c-0.361,-0.161 -0.594,-0.519 -0.594,-0.914l0,-4Zm9.963,-7.741l-0,9.49c-0,0 -3.311,-2.991 -3.311,-2.991c-0.381,-0.344 -0.96,-0.344 -1.341,-0l-3.311,2.991c0,0 0,-9.49 0,-9.49l7.963,0Zm-0,-7.759l-0,-3.5l-27.5,-0c-1.193,-0 -2.338,0.474 -3.182,1.318c-0.844,0.844 -1.318,1.989 -1.318,3.182l-0.007,0.007c0.002,0.019 0.004,0.039 0.005,0.058c0.001,-0.022 0.002,-0.043 0.002,-0.065c0,1.193 0.474,2.338 1.318,3.182c0.844,0.844 1.989,1.318 3.182,1.318l27.5,0l-0,-3.5l-18.926,-0c-0.552,-0 -1,-0.448 -1,-1c0,-0.552 0.448,-1 1,-1l18.926,-0Z"/>
</g>
</svg>