<?xml version="1.0" encoding="UTF-8"?>
<svg version="1.1" xmlns="http://www.w3.org/2000/svg" width="927" height="293">
<path d="M0 0 C4.08503542 0.0102178 8.17001047 -0.00292073 12.25503714 -0.01297333 C19.40306652 -0.02737402 26.55097489 -0.02701032 33.69900973 -0.01678469 C44.32858221 -0.00162005 54.9580531 -0.00940769 65.58762495 -0.02161792 C84.57483421 -0.04265752 103.56198956 -0.04086463 122.54920392 -0.02930227 C139.16538718 -0.01923363 155.7815507 -0.01661623 172.39773639 -0.02139284 C173.50061929 -0.02169838 174.60350219 -0.02200393 175.73980578 -0.02231872 C180.21694886 -0.02356411 184.69409193 -0.02483772 189.17123498 -0.02615778 C231.15641289 -0.03838934 273.14155649 -0.02730697 315.1267291 -0.00577019 C352.41482697 0.01321173 389.70287019 0.0115132 426.99096759 -0.00761416 C468.90014912 -0.02904018 510.80930037 -0.03752183 552.71848662 -0.0251651 C557.18739588 -0.02388226 561.65630514 -0.0226309 566.12521441 -0.02139284 C567.22554572 -0.02107654 568.32587703 -0.02076023 569.45955171 -0.02043433 C586.06387354 -0.01588754 602.66817345 -0.02119977 619.27249224 -0.03131106 C638.15540414 -0.04275269 657.03825377 -0.03987895 675.92115791 -0.01818808 C686.48473097 -0.00645341 697.04816916 -0.00566105 707.61173869 -0.02077278 C714.67298515 -0.02975886 721.73412376 -0.02413026 728.79535427 -0.0067537 C732.81507977 0.00273652 736.83453784 0.00606738 740.85425468 -0.00837763 C765.67141852 -0.09107272 788.30133637 0.96028422 807.06225665 19.25605772 C807.78799884 20.00113584 808.51374102 20.74621397 809.2614754 21.51387022 C810.30368243 22.5077374 810.30368243 22.5077374 811.36694415 23.52168272 C815.67155587 27.90122965 818.69908536 32.66413155 821.5114754 38.07637022 C821.82874591 38.67006406 822.14601641 39.26375791 822.47290118 39.87544248 C828.48792545 52.12516742 829.85979299 65.31646308 829.77905352 78.76387022 C829.78449267 80.31661121 829.79162524 81.86934702 829.80029376 83.42207334 C829.81831757 87.58748871 829.81154767 91.75250177 829.79877742 95.91792295 C829.78853968 100.30929015 829.79807261 104.70062644 829.80432208 109.09199522 C829.8115675 116.46184879 829.80209293 123.8315412 829.78295977 131.20137022 C829.76119702 139.68117692 829.7682506 148.1605987 829.7902654 156.6403961 C829.80850853 163.96493281 829.81093447 171.28935471 829.80051072 178.61390684 C829.79432444 182.96929719 829.79330405 187.32450757 829.80665667 191.67988584 C829.81834552 195.77764092 829.8099562 199.87490731 829.78707965 203.97261045 C829.7818612 205.46234836 829.78318589 206.95212854 829.79213031 208.44184873 C829.86399257 221.64383587 827.91170122 234.9283899 821.6989754 246.76387022 C821.19732867 247.74299375 821.19732867 247.74299375 820.68554766 248.74189756 C816.94022176 255.67053889 811.90212336 261.08720738 806.2614754 266.51387022 C805.40489337 267.39945615 805.40489337 267.39945615 804.53100665 268.30293272 C786.46681762 285.67055919 761.78074669 285.11131826 738.5229508 285.02774043 C734.43791538 285.01752263 730.35294033 285.03066117 726.26791365 285.04071376 C719.11988428 285.05511445 711.97197591 285.05475076 704.82394107 285.04452512 C694.19436859 285.02936048 683.5648977 285.03714812 672.93532585 285.04935835 C653.94811659 285.07039796 634.96096124 285.06860507 615.97374688 285.0570427 C599.35756362 285.04697407 582.7414001 285.04435667 566.12521441 285.04913328 C565.02233151 285.04943882 563.91944861 285.04974436 562.78314502 285.05005916 C558.30600194 285.05130455 553.82885887 285.05257815 549.35171581 285.05389821 C507.36653791 285.06612977 465.38139431 285.05504741 423.3962217 285.03351063 C386.10812383 285.0145287 348.8200806 285.01622723 311.53198321 285.03535459 C269.62280167 285.05678062 227.71365043 285.06526226 185.80446418 285.05290554 C181.33555492 285.0516227 176.86664565 285.05037134 172.39773639 285.04913328 C171.29740508 285.04881697 170.19707377 285.04850066 169.06339908 285.04817476 C152.45907725 285.04362797 135.85477735 285.0489402 119.25045855 285.05905149 C100.36754666 285.07049312 81.48469703 285.06761938 62.60179289 285.04592852 C52.03821983 285.03419384 41.47478164 285.03340148 30.91121211 285.04851321 C23.84996565 285.0574993 16.78882704 285.0518707 9.72759653 285.03449414 C5.70787102 285.02500391 1.68841295 285.02167305 -2.33130388 285.03611807 C-27.14846772 285.11881316 -49.77838557 284.06745622 -68.53930585 265.77168272 C-69.26504804 265.02660459 -69.99079023 264.28152647 -70.7385246 263.51387022 C-71.43332929 262.85129209 -72.12813398 262.18871397 -72.84399335 261.50605772 C-77.14860507 257.12651079 -80.17613456 252.36360888 -82.9885246 246.95137022 C-83.46443036 246.06082945 -83.46443036 246.06082945 -83.94995038 245.15229795 C-89.96497465 232.90257301 -91.33684219 219.71127736 -91.25610273 206.26387022 C-91.26154187 204.71112923 -91.26867444 203.15839341 -91.27734296 201.60566709 C-91.29536677 197.44025172 -91.28859687 193.27523866 -91.27582662 189.10981748 C-91.26558888 184.71845029 -91.27512181 180.32711399 -91.28137128 175.93574522 C-91.2886167 168.56589165 -91.27914213 161.19619923 -91.26000898 153.82637022 C-91.23824622 145.34656352 -91.24529981 136.86714173 -91.2673146 128.38734434 C-91.28555774 121.06280762 -91.28798368 113.73838573 -91.27755992 106.4138336 C-91.27137364 102.05844324 -91.27035326 97.70323286 -91.28370588 93.34785459 C-91.29539472 89.25009952 -91.2870054 85.15283312 -91.26412885 81.05512998 C-91.2589104 79.56539208 -91.26023509 78.0756119 -91.26917951 76.5858917 C-91.34104177 63.38390457 -89.38875042 50.09935053 -83.1760246 38.26387022 C-82.84159345 37.61112119 -82.5071623 36.95837217 -82.16259687 36.28584287 C-78.41727096 29.35720155 -73.37917256 23.94053305 -67.7385246 18.51387022 C-67.16746991 17.92347959 -66.59641523 17.33308897 -66.00805585 16.72480772 C-47.94386682 -0.64281876 -23.25779589 -0.08357782 0 0 Z " fill="#2D6A4F" transform="translate(94.73852460086346,3.4861297830939293)"/>
<path d="M0 0 C4.08503542 0.0102178 8.17001047 -0.00292073 12.25503714 -0.01297333 C19.40306652 -0.02737402 26.55097489 -0.02701032 33.69900973 -0.01678469 C44.32858221 -0.00162005 54.9580531 -0.00940769 65.58762495 -0.02161792 C84.57483421 -0.04265752 103.56198956 -0.04086463 122.54920392 -0.02930227 C139.16538718 -0.01923363 155.7815507 -0.01661623 172.39773639 -0.02139284 C173.50061929 -0.02169838 174.60350219 -0.02200393 175.73980578 -0.02231872 C180.21694886 -0.02356411 184.69409193 -0.02483772 189.17123498 -0.02615778 C231.15641289 -0.03838934 273.14155649 -0.02730697 315.1267291 -0.00577019 C352.41482697 0.01321173 389.70287019 0.0115132 426.99096759 -0.00761416 C468.90014912 -0.02904018 510.80930037 -0.03752183 552.71848662 -0.0251651 C557.18739588 -0.02388226 561.65630514 -0.0226309 566.12521441 -0.02139284 C567.22554572 -0.02107654 568.32587703 -0.02076023 569.45955171 -0.02043433 C586.06387354 -0.01588754 602.66817345 -0.02119977 619.27249224 -0.03131106 C638.15540414 -0.04275269 657.03825377 -0.03987895 675.92115791 -0.01818808 C686.48473097 -0.00645341 697.04816916 -0.00566105 707.61173869 -0.02077278 C714.67298515 -0.02975886 721.73412376 -0.02413026 728.79535427 -0.0067537 C732.81507977 0.00273652 736.83453784 0.00606738 740.85425468 -0.00837763 C765.67141852 -0.09107272 788.30133637 0.96028422 807.06225665 19.25605772 C807.78799884 20.00113584 808.51374102 20.74621397 809.2614754 21.51387022 C810.30368243 22.5077374 810.30368243 22.5077374 811.36694415 23.52168272 C815.67155587 27.90122965 818.69908536 32.66413155 821.5114754 38.07637022 C821.82874591 38.67006406 822.14601641 39.26375791 822.47290118 39.87544248 C828.48792545 52.12516742 829.85979299 65.31646308 829.77905352 78.76387022 C829.78449267 80.31661121 829.79162524 81.86934702 829.80029376 83.42207334 C829.81831757 87.58748871 829.81154767 91.75250177 829.79877742 95.91792295 C829.78853968 100.30929015 829.79807261 104.70062644 829.80432208 109.09199522 C829.8115675 116.46184879 829.80209293 123.8315412 829.78295977 131.20137022 C829.76119702 139.68117692 829.7682506 148.1605987 829.7902654 156.6403961 C829.80850853 163.96493281 829.81093447 171.28935471 829.80051072 178.61390684 C829.79432444 182.96929719 829.79330405 187.32450757 829.80665667 191.67988584 C829.81834552 195.77764092 829.8099562 199.87490731 829.78707965 203.97261045 C829.7818612 205.46234836 829.78318589 206.95212854 829.79213031 208.44184873 C829.86399257 221.64383587 827.91170122 234.9283899 821.6989754 246.76387022 C821.19732867 247.74299375 821.19732867 247.74299375 820.68554766 248.74189756 C816.94022176 255.67053889 811.90212336 261.08720738 806.2614754 266.51387022 C805.40489337 267.39945615 805.40489337 267.39945615 804.53100665 268.30293272 C786.46681762 285.67055919 761.78074669 285.11131826 738.5229508 285.02774043 C734.43791538 285.01752263 730.35294033 285.03066117 726.26791365 285.04071376 C719.11988428 285.05511445 711.97197591 285.05475076 704.82394107 285.04452512 C694.19436859 285.02936048 683.5648977 285.03714812 672.93532585 285.04935835 C653.94811659 285.07039796 634.96096124 285.06860507 615.97374688 285.0570427 C599.35756362 285.04697407 582.7414001 285.04435667 566.12521441 285.04913328 C565.02233151 285.04943882 563.91944861 285.04974436 562.78314502 285.05005916 C558.30600194 285.05130455 553.82885887 285.05257815 549.35171581 285.05389821 C507.36653791 285.06612977 465.38139431 285.05504741 423.3962217 285.03351063 C386.10812383 285.0145287 348.8200806 285.01622723 311.53198321 285.03535459 C269.62280167 285.05678062 227.71365043 285.06526226 185.80446418 285.05290554 C181.33555492 285.0516227 176.86664565 285.05037134 172.39773639 285.04913328 C171.29740508 285.04881697 170.19707377 285.04850066 169.06339908 285.04817476 C152.45907725 285.04362797 135.85477735 285.0489402 119.25045855 285.05905149 C100.36754666 285.07049312 81.48469703 285.06761938 62.60179289 285.04592852 C52.03821983 285.03419384 41.47478164 285.03340148 30.91121211 285.04851321 C23.84996565 285.0574993 16.78882704 285.0518707 9.72759653 285.03449414 C5.70787102 285.02500391 1.68841295 285.02167305 -2.33130388 285.03611807 C-27.14846772 285.11881316 -49.77838557 284.06745622 -68.53930585 265.77168272 C-69.26504804 265.02660459 -69.99079023 264.28152647 -70.7385246 263.51387022 C-71.43332929 262.85129209 -72.12813398 262.18871397 -72.84399335 261.50605772 C-77.14860507 257.12651079 -80.17613456 252.36360888 -82.9885246 246.95137022 C-83.46443036 246.06082945 -83.46443036 246.06082945 -83.94995038 245.15229795 C-89.96497465 232.90257301 -91.33684219 219.71127736 -91.25610273 206.26387022 C-91.26154187 204.71112923 -91.26867444 203.15839341 -91.27734296 201.60566709 C-91.29536677 197.44025172 -91.28859687 193.27523866 -91.27582662 189.10981748 C-91.26558888 184.71845029 -91.27512181 180.32711399 -91.28137128 175.93574522 C-91.2886167 168.56589165 -91.27914213 161.19619923 -91.26000898 153.82637022 C-91.23824622 145.34656352 -91.24529981 136.86714173 -91.2673146 128.38734434 C-91.28555774 121.06280762 -91.28798368 113.73838573 -91.27755992 106.4138336 C-91.27137364 102.05844324 -91.27035326 97.70323286 -91.28370588 93.34785459 C-91.29539472 89.25009952 -91.2870054 85.15283312 -91.26412885 81.05512998 C-91.2589104 79.56539208 -91.26023509 78.0756119 -91.26917951 76.5858917 C-91.34104177 63.38390457 -89.38875042 50.09935053 -83.1760246 38.26387022 C-82.84159345 37.61112119 -82.5071623 36.95837217 -82.16259687 36.28584287 C-78.41727096 29.35720155 -73.37917256 23.94053305 -67.7385246 18.51387022 C-67.16746991 17.92347959 -66.59641523 17.33308897 -66.00805585 16.72480772 C-47.94386682 -0.64281876 -23.25779589 -0.08357782 0 0 Z M-50.7385246 30.51387022 C-51.49778241 31.13133115 -52.25704023 31.74879209 -53.03930585 32.38496397 C-62.37136376 40.81099684 -68.22796773 53.18878096 -69.7385246 65.51387022 C-69.82800944 67.71503872 -69.87308193 69.91835905 -69.8789665 72.12133787 C-69.88467664 73.40939832 -69.89038678 74.69745878 -69.89626996 76.02455137 C-69.89751503 77.43464649 -69.89864019 78.84474171 -69.89965741 80.25483701 C-69.9042915 81.75362262 -69.90931695 83.25240707 -69.91470258 84.75119016 C-69.92777197 88.80930277 -69.93426087 92.86739887 -69.93871324 96.92552922 C-69.94165291 99.4659476 -69.94575938 102.00636156 -69.95021741 104.5467777 C-69.96387818 112.50989942 -69.97355168 120.47301093 -69.9774193 128.43614355 C-69.98189619 137.60103044 -69.9994329 146.76576791 -70.0284199 155.93060938 C-70.0500978 163.03321782 -70.06012684 170.13578439 -70.06146042 177.23842553 C-70.06250411 181.47197371 -70.06831844 185.70538116 -70.08628003 189.93889425 C-70.10286674 193.92560682 -70.10486536 197.91207444 -70.09614103 201.89880941 C-70.09537628 203.35314594 -70.09963821 204.80749622 -70.10959928 206.26179884 C-70.22078383 223.52169309 -66.41124063 238.45621582 -54.22680585 251.19355772 C-40.32815702 264.1539932 -26.92958217 267.83507215 -8.31037156 267.76834581 C-6.96669355 267.77073933 -5.62301687 267.77400688 -4.27934285 267.77806241 C-0.59508778 267.78665578 3.08906498 267.78286708 6.77332154 267.77700669 C10.78463434 267.77282811 14.79592875 267.78024301 18.80723704 267.7861592 C25.8349787 267.79491731 32.86269121 267.79623468 39.89043696 267.79265592 C50.34099352 267.78734819 60.79152188 267.79344491 71.24207537 267.80173886 C90.99205336 267.8169822 110.74201854 267.81868361 130.49200118 267.81621583 C145.74148084 267.81438353 160.9909563 267.81614144 176.24043544 267.82044027 C178.43091725 267.82104267 180.62139907 267.82164387 182.81188089 267.82224387 C186.11266946 267.82315112 189.41345803 267.82405979 192.71424659 267.82497622 C223.40430581 267.83340618 254.09436345 267.83774111 284.78442366 267.8335695 C285.94146569 267.83341313 287.09850771 267.83325675 288.29061161 267.83309564 C294.15503384 267.83228985 300.01945607 267.83144408 305.8838783 267.83058234 C307.04858349 267.83041125 308.21328868 267.83024016 309.41328796 267.83006389 C311.7686041 267.82971723 314.12392023 267.8293687 316.47923637 267.8290183 C353.1352559 267.82366003 389.79125137 267.83159435 426.44726641 267.85005186 C467.62498121 267.87076188 508.80268111 267.88149655 549.98040141 267.87747637 C554.36983414 267.87708102 558.75926687 267.87671947 563.1486996 267.87637899 C564.76989985 267.87624289 564.76989985 267.87624289 566.42385163 267.87610405 C582.74780395 267.87493751 599.07174124 267.8815906 615.3956898 267.89219091 C633.956817 267.90423164 652.51791106 267.9058148 671.07903875 267.89340074 C681.46809379 267.88676352 691.85706962 267.8884231 702.24611836 267.90198926 C709.18485871 267.9102201 716.12353959 267.90755399 723.06227509 267.89601399 C727.01621137 267.88974408 730.96999282 267.88819149 734.92392028 267.89987732 C738.52444693 267.91042079 742.12468767 267.90703482 745.72519905 267.8927728 C747.62278004 267.88877861 749.52037486 267.89942241 751.41792624 267.91074986 C767.90828314 267.80622909 781.86573245 262.04079712 793.56225665 250.43965147 C803.28909166 239.89638168 808.35439655 227.27667218 808.40864642 212.95745847 C808.41580172 211.65538953 808.42295703 210.3533206 808.43032916 209.01179502 C808.43316896 207.58076499 808.43588074 206.1497347 808.43847735 204.7187042 C808.44474839 203.20198409 808.45139575 201.6852655 808.45839007 200.16854856 C808.47936055 195.1990311 808.48978738 190.22951358 808.49975665 185.25996397 C808.50380713 183.54344731 808.50792414 181.82693082 808.51210673 180.11041448 C808.53114471 172.04210468 808.54537744 163.97380394 808.5537187 155.90547601 C808.56347963 146.61942523 808.58977503 137.33361353 808.63021959 128.04764692 C808.66047266 120.85247587 808.67519634 113.65737301 808.67849971 106.46213964 C808.68084011 102.17316269 808.68966763 97.88444156 808.71496089 93.59553335 C808.73840765 89.55461036 808.74240899 85.51410861 808.7321995 81.47313497 C808.73170801 79.99986102 808.73791291 78.52656514 808.75175555 77.05335615 C808.89765103 60.58920809 804.55972447 46.0045628 793.1364754 33.76387022 C782.78505636 24.04837454 769.97619824 17.3959618 755.63827468 17.38506905 C753.94402089 17.38016076 753.94402089 17.38016076 752.21553974 17.37515331 C750.35779896 17.37737875 750.35779896 17.37737875 748.46252806 17.37964914 C747.12619175 17.37769567 745.78985602 17.37530662 744.45352118 17.37252117 C740.7663307 17.36611732 737.079162 17.36595985 733.39196703 17.36679858 C729.38606351 17.36662915 725.38016781 17.36072384 721.37426819 17.35555772 C713.42213678 17.34622616 705.47001093 17.34230873 697.51787473 17.34003875 C687.9953246 17.33707809 678.47278186 17.32838144 668.9502356 17.31962447 C645.93112534 17.29877264 622.91201379 17.28830882 599.89289628 17.27949486 C589.0037 17.27528911 578.11450427 17.270067 567.22530845 17.26481033 C529.95295521 17.24691884 492.68060181 17.23192297 455.40824492 17.22449014 C453.06790249 17.22401539 450.72756005 17.2235395 448.38721761 17.22306248 C447.22661232 17.22282611 446.06600703 17.22258973 444.87023188 17.22234619 C438.98998558 17.22114499 433.10973928 17.21992954 427.22949298 17.2187042 C426.06253772 17.21846405 424.89558247 17.2182239 423.69326494 17.21797647 C385.86158486 17.21008433 348.02993614 17.18665491 310.19826975 17.15414826 C270.20429321 17.11984638 230.21033503 17.10013863 190.21634354 17.0968459 C185.82533903 17.09642836 181.43433453 17.0959488 177.04333003 17.09542272 C175.96213447 17.09529953 174.88093892 17.09517634 173.76697986 17.09504941 C156.3704307 17.09271775 138.97391798 17.07705954 121.5773818 17.05658088 C104.08790479 17.03631959 86.5984715 17.03084701 69.10898492 17.04035151 C58.72097981 17.0455654 48.33312033 17.03969425 37.94513619 17.01781684 C31.00054296 17.0042978 24.05604986 17.00539552 17.11145561 17.0182188 C13.15814946 17.02510808 9.20512151 17.02581052 5.25184033 17.00865871 C-24.78767161 16.70051792 -24.78767161 16.70051792 -50.7385246 30.51387022 Z " fill="#357056" transform="translate(94.73852460086346,3.4861297830939293)"/>
<path d="M0 0 C0.83626923 -0.00807175 1.67253845 -0.01614349 2.53414917 -0.02445984 C4.30432073 -0.03827369 6.07451863 -0.04900789 7.84472656 -0.05688477 C9.64070535 -0.06837256 11.43665086 -0.0887734 13.23242188 -0.1184082 C34.35975659 -0.4667679 34.35975659 -0.4667679 43.8046875 6.55078125 C52.17134229 15.11664211 52.73034039 25.18519222 52.72021484 36.6262207 C52.72693207 37.72992004 52.73364929 38.83361938 52.74057007 39.97076416 C52.75947494 43.59774349 52.7634704 47.22453705 52.765625 50.8515625 C52.77205778 53.38828099 52.7787865 55.92499874 52.78579712 58.4617157 C52.79775087 63.7716168 52.80156592 69.08144948 52.80029297 74.39135742 C52.79909262 80.50069464 52.8201855 86.60967801 52.8517803 92.71892577 C52.8812393 98.62905012 52.8882649 104.53906799 52.88707352 110.44927025 C52.88942339 112.9485538 52.89821204 115.44784037 52.91373825 117.9470768 C52.93347753 121.45239732 52.92752843 124.95682122 52.91552734 128.4621582 C52.92676636 129.48021042 52.93800537 130.49826263 52.94958496 131.54716492 C52.86447071 141.40008406 50.67667221 150.70587007 43.796875 158.03125 C42.4296875 159.23828125 42.4296875 159.23828125 40.4296875 160.23828125 C41.23335638 165.75062547 43.77551196 170.24781618 46.25 175.1796875 C47.4296875 178.23828125 47.4296875 178.23828125 46.4296875 182.23828125 C37.8496875 182.23828125 29.2696875 182.23828125 20.4296875 182.23828125 C19.1096875 179.63953125 17.7896875 177.04078125 16.4296875 174.36328125 C16.01203125 173.54617676 15.594375 172.72907227 15.1640625 171.88720703 C14.83921875 171.24251465 14.514375 170.59782227 14.1796875 169.93359375 C13.84453125 169.27375488 13.509375 168.61391602 13.1640625 167.93408203 C12.4296875 166.23828125 12.4296875 166.23828125 12.4296875 164.23828125 C11.84590332 164.25922852 11.26211914 164.28017578 10.66064453 164.30175781 C-11.12153258 164.98124132 -11.12153258 164.98124132 -18.5703125 160.23828125 C-19.15683594 159.87605469 -19.74335938 159.51382813 -20.34765625 159.140625 C-26.4011204 154.77443447 -29.15026708 147.33677658 -30.5703125 140.23828125 C-30.85968899 136.51192276 -30.85393211 132.79772096 -30.8449707 129.06152344 C-30.8526371 127.40400307 -30.8526371 127.40400307 -30.86045837 125.71299744 C-30.87432558 122.07032816 -30.8733994 118.42784875 -30.87109375 114.78515625 C-30.87498287 112.2431837 -30.87931799 109.70121179 -30.88407898 107.15924072 C-30.8915355 101.83318711 -30.89139351 96.50720267 -30.88598633 91.18115234 C-30.87995597 85.0491735 -30.89223852 78.91742465 -30.9135564 72.78548503 C-30.93338815 66.86040894 -30.93633505 60.93540322 -30.93282127 55.01029205 C-30.93333287 52.50181794 -30.93854008 49.99334003 -30.94863319 47.48488617 C-30.96104777 43.96728613 -30.95417487 40.45020962 -30.94262695 36.93261719 C-30.95027069 35.90782761 -30.95791443 34.88303802 -30.96578979 33.82719421 C-30.89821247 24.45664926 -29.47861278 15.38257435 -23.3828125 7.9609375 C-16.51417966 1.43277568 -9.14118236 0.08429475 0 0 Z " fill="#E7E0D9" transform="translate(226.5703125,62.76171875)"/>
<path d="M0 0 C2.61609909 0.02141352 5.22944419 0.00014345 7.84545898 -0.02539062 C18.49259104 -0.04375091 28.74271239 0.19311464 37.12475586 7.64648438 C43.70871076 15.30686758 44.77735341 23.72740051 44.68896484 33.51367188 C44.69706932 35.24741058 44.69706932 35.24741058 44.70533752 37.01617432 C44.71777228 40.80987719 44.70136762 44.60281337 44.68334961 48.39648438 C44.68350472 51.04867574 44.68494236 53.70084025 44.6877594 56.35302734 C44.69045257 61.90080589 44.67706338 67.44836698 44.65380859 72.99609375 C44.62720435 79.38663125 44.62545503 85.77680547 44.63719696 92.16737938 C44.64802089 98.34505174 44.64175167 104.52259424 44.62764168 110.70025635 C44.62314025 113.31560894 44.62277888 115.93097217 44.62670708 118.54632568 C44.62963236 122.20753531 44.61304828 125.8681612 44.59130859 129.52929688 C44.59581024 130.59972229 44.60031189 131.67014771 44.60494995 132.77301025 C44.50805185 142.64410404 42.90518383 150.66361785 35.94506836 157.90039062 C29.39747234 163.93872918 21.85690693 164.83324694 13.32397461 164.85742188 C12.07593803 164.86740707 12.07593803 164.86740707 10.8026886 164.87759399 C9.05044752 164.88767042 7.29816846 164.89241258 5.54589844 164.89208984 C2.89249088 164.8964552 0.24075969 164.93280502 -2.41235352 164.97070312 C-13.05871771 165.04218593 -22.27656244 164.79653749 -30.68774414 157.45898438 C-37.48640731 149.71447561 -38.40487599 140.23308203 -38.33032227 130.32397461 C-38.34083618 128.57538651 -38.34083618 128.57538651 -38.3515625 126.79147339 C-38.36904551 122.97075988 -38.35755418 119.15079805 -38.34399414 115.33007812 C-38.34669164 112.65689691 -38.35057106 109.98373781 -38.35559082 107.31056213 C-38.36283992 101.72168966 -38.35335099 96.13302958 -38.33422852 90.54418945 C-38.31245411 84.10641997 -38.31952588 77.66915723 -38.34153414 71.23139995 C-38.35975404 65.67688396 -38.36221482 60.12251947 -38.35177946 54.56798321 C-38.34558181 51.26231541 -38.34620377 47.95693452 -38.35792542 44.65127373 C-38.36813427 40.96370514 -38.35252784 37.27709704 -38.33032227 33.58959961 C-38.33841919 32.5113945 -38.34651611 31.43318939 -38.3548584 30.3223114 C-38.25888324 21.67752058 -36.49183463 14.26381067 -30.68774414 7.64648438 C-21.72216951 -0.31024494 -11.35154958 -0.11052908 0 0 Z " fill="#E9E2DB" transform="translate(700.812744140625,62.478515625)"/>
<path d="M0 0 C1.34367801 -0.00239352 2.6873547 -0.00566107 4.03102872 -0.0097166 C7.71528378 -0.01830997 11.39943654 -0.01452127 15.0836931 -0.00866088 C19.0950059 -0.0044823 23.10630031 -0.0118972 27.11760861 -0.01781338 C34.14535026 -0.0265715 41.17306277 -0.02788887 48.20080853 -0.02431011 C58.65136508 -0.01900238 69.10189344 -0.0250991 79.55244693 -0.03339304 C99.30242492 -0.04863639 119.0523901 -0.0503378 138.80237275 -0.04787002 C154.05185241 -0.04603772 169.30132786 -0.04779563 184.550807 -0.05209446 C186.74128882 -0.05269686 188.93177063 -0.05329806 191.12225245 -0.05389806 C194.42304102 -0.05480531 197.72382959 -0.05571398 201.02461816 -0.05663041 C231.71467738 -0.06506037 262.40473501 -0.0693953 293.09479523 -0.06522369 C294.25183725 -0.06506732 295.40887927 -0.06491094 296.60098317 -0.06474983 C302.4654054 -0.06394404 308.32982763 -0.06309827 314.19424986 -0.06223653 C315.94130764 -0.06197989 315.94130764 -0.06197989 317.72365953 -0.06171808 C320.07897566 -0.06137142 322.4342918 -0.06102289 324.78960793 -0.06067249 C361.44562746 -0.05531422 398.10162294 -0.06324854 434.75763798 -0.08170605 C475.93535278 -0.10241607 517.11305268 -0.11315074 558.29077297 -0.10913056 C562.6802057 -0.10873521 567.06963843 -0.10837366 571.45907116 -0.10803318 C572.53987133 -0.10794245 573.6206715 -0.10785172 574.73422319 -0.10775824 C591.05817551 -0.1065917 607.3821128 -0.11324479 623.70606136 -0.1238451 C642.26718857 -0.13588583 660.82828262 -0.13746899 679.38941031 -0.12505493 C689.77846535 -0.11841771 700.16744118 -0.12007729 710.55648992 -0.13364345 C717.49523027 -0.14187429 724.43391115 -0.13920818 731.37264665 -0.12766818 C735.32658293 -0.12139827 739.28036438 -0.11984568 743.23429184 -0.13153151 C746.83481849 -0.14207498 750.43505923 -0.13868901 754.03557062 -0.12442699 C755.9331516 -0.1204328 757.83074642 -0.1310766 759.7282978 -0.14240405 C776.22103149 -0.03786821 790.16909141 5.7303207 801.87262821 17.32478809 C810.97288527 27.20205697 816.67677651 39.20468967 816.71228886 52.69736195 C816.72085407 54.6505711 816.72085407 54.6505711 816.72959232 56.64323902 C816.73083756 58.0794877 816.73196268 59.5157365 816.73297977 60.95198536 C816.73761112 62.47018014 816.7426362 63.98837377 816.74802494 65.50656605 C816.761124 69.62677857 816.7675895 73.74697482 816.7720356 77.8672049 C816.77497149 80.44546968 816.77907736 83.02373005 816.78353977 85.60199261 C816.79721065 93.68045135 816.80687825 101.75889999 816.81074166 109.8373695 C816.81521588 119.1403768 816.83273587 128.44323669 816.86174226 137.74619919 C816.88341991 144.95067725 816.89344925 152.15511403 816.89478278 159.35962433 C816.89582683 163.6557997 816.9016485 167.95183643 816.91960239 172.24797726 C816.93618772 176.29539962 816.93818836 180.34258072 816.92946339 184.39002514 C816.92869846 185.86693567 816.93296292 187.34385973 816.94292164 188.82073689 C817.05374741 206.29610105 813.21196517 221.19775514 800.84919071 234.07478809 C787.84003714 246.52608774 773.88346188 250.57195928 756.27232838 250.50895119 C754.93042111 250.51134396 753.58851516 250.51461102 752.24661189 250.51866779 C748.56259763 250.5272716 744.87868552 250.52346808 741.19466973 250.51761206 C737.18532663 250.51343724 733.17600201 250.52084628 729.16666341 250.52676457 C722.14076972 250.53552681 715.11490518 250.5368386 708.08900738 250.5332613 C697.64107568 250.52795568 687.19317222 250.53404821 676.7452436 250.54234423 C656.99961796 250.55759168 637.25400513 250.55928852 617.50837484 250.5568212 C602.26079539 250.55498908 587.01322014 250.55674646 571.76564121 250.56104565 C569.57560581 250.56164805 567.38557042 250.56224924 565.19553502 250.56284925 C561.89541494 250.5637565 558.59529485 250.56466516 555.29517477 250.5655816 C524.60833446 250.57401237 493.92149573 250.57834599 463.23465443 250.57417488 C462.07759683 250.5740185 460.92053923 250.57386213 459.72841928 250.57370101 C453.86390214 250.57289522 447.99938501 250.57204945 442.13486788 250.57118771 C440.97014274 250.57101662 439.80541761 250.57084554 438.60539777 250.57066926 C436.25003984 250.57032261 433.89468191 250.56997408 431.53932397 250.56962368 C394.89016196 250.5642665 358.24102401 250.57219629 321.59186649 250.59065723 C280.42183062 250.61137112 239.25180965 250.62210109 198.08176827 250.61808175 C193.69228411 250.6176864 189.30279994 250.61732485 184.91331577 250.61698437 C183.83250395 250.61689364 182.75169213 250.6168029 181.63812843 250.61670942 C165.318632 250.61554321 148.99915061 250.62219362 132.67965794 250.63279629 C114.12002759 250.64484201 95.5604304 250.64641451 77.00079957 250.63400612 C66.61439195 250.62737295 56.22806359 250.62901914 45.8416623 250.64259463 C38.90209847 250.65083357 31.96259406 250.6481488 25.02303507 250.63661937 C21.07025125 250.63035745 17.11762216 250.62877632 13.16484722 250.6404827 C9.5630129 250.65105143 5.96146383 250.64760886 2.35964458 250.63337817 C0.46620449 250.62939799 -1.42724954 250.64000646 -3.32065982 250.65135524 C-20.90071537 250.54038825 -34.28465134 245.27203496 -46.76409054 233.03963184 C-56.49930003 222.86191283 -61.54076632 209.81887686 -61.56186581 195.75380421 C-61.56613079 194.4642281 -61.57039577 193.17465199 -61.57479 191.84599781 C-61.57444053 190.42909714 -61.57397903 189.0121965 -61.57341671 187.59529591 C-61.57641106 186.09341314 -61.57981422 184.59153115 -61.58359432 183.08965015 C-61.59241154 179.01921176 -61.59477151 174.94879441 -61.59541011 170.8783474 C-61.59612203 168.33175216 -61.59825905 165.78516223 -61.60090733 163.23856831 C-61.61015396 154.34412771 -61.61424316 145.44970208 -61.61345577 136.55525684 C-61.6128555 128.28127303 -61.62339909 120.00735453 -61.63919944 111.73338723 C-61.65230312 104.61639293 -61.65763847 97.49941989 -61.65700036 90.38241363 C-61.65674616 86.13777128 -61.6595541 81.89318697 -61.67017841 77.64855671 C-61.67990683 73.65287301 -61.67990627 69.65730226 -61.67266178 65.66161442 C-61.67162174 64.20160601 -61.67394405 62.7415904 -61.68002224 61.28159428 C-61.74795466 43.82222371 -58.36512451 29.4129427 -45.88127804 16.50447559 C-31.87431179 3.65732184 -18.66165392 -0.06687845 0 0 Z M-44.42815304 23.25447559 C-53.49799143 35.04885042 -56.03236325 46.33761539 -55.92986202 60.94026661 C-55.93365286 62.49215146 -55.93915916 64.04403291 -55.9462347 65.59590626 C-55.96010593 69.7798233 -55.94907923 73.96332527 -55.93252349 78.14721894 C-55.91859081 82.54275062 -55.92514228 86.9382602 -55.92865658 91.33380604 C-55.93135196 98.71164545 -55.91794019 106.08932154 -55.89470577 113.46712208 C-55.86809041 121.97700018 -55.8663546 130.48660556 -55.87809414 138.99651104 C-55.88890076 147.21007186 -55.88266289 155.42353476 -55.86853886 163.63708782 C-55.86280502 167.12049603 -55.8628411 170.60383198 -55.86760426 174.08724117 C-55.87240262 178.19387695 -55.86215501 182.30021687 -55.8406496 186.40679646 C-55.83512065 187.90711119 -55.83458033 189.40745459 -55.83960247 190.90777111 C-55.88683842 207.05243931 -51.96507044 219.10410147 -40.81487179 231.08260059 C-28.72772236 242.08170874 -15.69815272 244.72366885 0.24888897 244.63199902 C1.59520238 244.6351354 2.94151325 244.6395843 4.28781855 244.64521211 C7.97010195 244.65683305 11.65214757 244.64993702 15.33442685 244.63987826 C19.34701909 244.63224088 23.359576 244.64205866 27.37216318 244.64960825 C34.39902337 244.66042738 41.42581437 244.66012444 48.45267773 244.65246677 C58.90182684 244.64111058 69.35091769 244.64692506 79.80006643 244.6560917 C98.46258901 244.67188437 117.12508077 244.67052163 135.78760629 244.66185496 C152.11824083 244.6543084 168.44886408 244.65233815 184.77950001 244.65592289 C185.86273341 244.65615204 186.94596682 244.6563812 188.06202548 244.6566173 C192.45919704 244.65755131 196.8563686 244.65850651 201.25354015 244.65949659 C242.50040107 244.6686732 283.74724236 244.66035358 324.99410026 244.6442059 C361.64372425 244.62996711 398.29331698 244.6312447 434.94294071 244.64558887 C476.11736607 244.66165012 517.29177409 244.66802442 558.46620214 244.65875208 C562.85474324 244.65778993 567.24328434 244.65685141 571.63182545 244.65592289 C572.71240004 244.65568566 573.79297463 244.65544843 574.90629391 244.655204 C591.22850801 244.65179069 607.55070958 244.65578404 623.87292194 244.66336155 C642.42927402 244.67193329 660.98559045 244.66980762 679.54193808 244.65351932 C689.92898973 244.64470275 700.31596421 244.64414656 710.70301387 244.65545784 C717.63907522 244.66217855 724.57507463 244.65800996 731.5111268 244.64494353 C735.4643148 244.63779985 739.41734935 244.63538232 743.37053259 244.64616148 C746.96918951 244.65587396 750.56755728 244.65170452 754.16619325 244.6366195 C756.06518528 244.63218871 757.96419442 244.64240802 759.86316049 244.65328234 C774.41429759 244.55756455 786.61436722 239.81341875 797.24372196 229.78572559 C805.67898524 220.61449974 810.6728434 210.15578007 810.71901798 197.69096851 C810.72453301 196.72227493 810.72453301 196.72227493 810.73015946 195.73401177 C810.74114033 193.57790167 810.74503059 191.42183986 810.74884892 189.26570606 C810.75511787 187.71633217 810.76176505 186.16695977 810.76876163 184.617589 C810.78975552 179.53562425 810.8001606 174.45365937 810.81012821 169.37166309 C810.81417771 167.61826658 810.81829469 165.86487023 810.82247829 164.11147404 C810.84152079 155.87123749 810.85575302 147.63100984 810.86409026 139.39075553 C810.87385531 129.89752528 810.90015961 120.40452863 810.94059116 110.91138065 C810.97081297 103.56169756 810.98556493 96.21208122 810.98887128 88.86233723 C810.99121508 84.47839643 811.00008783 80.09470546 811.02533245 75.71083164 C811.04872432 71.58210762 811.05280216 67.45379598 811.04257107 63.3250227 C811.04207826 61.81704614 811.04832265 60.30904851 811.06212711 58.80113506 C811.18988599 44.00734437 807.52657753 31.73600951 797.21247196 20.73885059 C784.95839795 9.24589919 772.61934374 5.78171263 756.02343941 5.87695217 C754.67889673 5.87381677 753.3343566 5.86936859 751.98982206 5.86373907 C748.30777956 5.85210405 744.62597443 5.85902169 740.94393599 5.86907293 C736.9333134 5.87670344 732.92272636 5.86689522 728.91210884 5.85934293 C721.88709661 5.84851873 714.86215357 5.84882988 707.83713818 5.85648441 C697.39061391 5.8678361 686.94414797 5.86202842 676.4976241 5.85285949 C657.83942239 5.83706274 639.1812515 5.8384313 620.52304687 5.84709623 C604.19434401 5.85464211 587.86565245 5.85661337 571.5369482 5.8530283 C569.91243036 5.85268456 569.91243036 5.85268456 568.25509397 5.85233389 C563.85881357 5.85139987 559.46253318 5.85044467 555.06625279 5.8494546 C513.82243819 5.84027682 472.57864322 5.8485991 431.33483165 5.86474529 C394.69206517 5.87898117 358.04932997 5.87770915 321.40656376 5.86336231 C280.23981733 5.84729807 239.07308824 5.84092871 197.90633911 5.8501991 C193.51774657 5.85116126 189.12915403 5.85209978 184.74056149 5.8530283 C183.65997524 5.85326553 182.57938899 5.85350276 181.46605771 5.85374718 C165.1482995 5.85715956 148.83055383 5.85316883 132.51279736 5.84558964 C113.95794214 5.83701435 95.40312257 5.83915102 76.84827179 5.85543187 C66.46386758 5.86424305 56.07954056 5.86481241 45.69513834 5.85349335 C38.75825352 5.84676603 31.82143058 5.85095321 24.88455492 5.86400765 C20.93251939 5.87114223 16.98063718 5.8735878 13.02860648 5.86278971 C9.4286419 5.85305396 5.82896577 5.85727987 2.22902196 5.87233169 C0.3341708 5.87674694 -1.56069753 5.86656359 -3.45552251 5.85566884 C-19.93319086 5.96361028 -33.0974534 11.08134476 -44.42815304 23.25447559 Z " fill="#E8E1DA" transform="translate(86.4281530380249,20.745524406433105)"/>
<path d="M0 0 C0.7027002 -0.00191345 1.40540039 -0.0038269 2.12939453 -0.00579834 C3.61556354 -0.00715975 5.10174445 -0.00346632 6.58789062 0.00488281 C8.86615646 0.01558346 11.14363377 0.00498661 13.421875 -0.0078125 C14.86458508 -0.0064909 16.30729466 -0.00392849 17.75 0 C19.06742187 0.00225586 20.38484375 0.00451172 21.7421875 0.00683594 C24.875 0.265625 24.875 0.265625 26.875 2.265625 C27.53896324 4.61999974 28.10166076 6.92787028 28.609375 9.31640625 C28.76770813 10.03334152 28.92604126 10.75027679 29.08917236 11.48893738 C29.60849818 13.85045173 30.11688348 16.21417562 30.625 18.578125 C30.985198 20.22796925 31.34587988 21.87770793 31.70703125 23.52734375 C34.08463081 34.42733636 36.36156631 45.34696382 38.59155273 56.27807617 C40.67088736 66.41976927 42.91915859 76.51945303 45.18832397 86.61987305 C48.55645272 101.63068174 51.71418023 116.68290899 54.81762695 131.75048828 C55.17616399 133.48478969 55.53511967 135.21900462 55.89453125 136.953125 C56.06487381 137.77618134 56.23521637 138.59923767 56.41072083 139.44723511 C57.56579338 144.96282859 58.87163309 150.4204365 60.3659668 155.85546875 C60.90519793 158.40860532 61.03705734 160.66365724 60.875 163.265625 C59.875 164.265625 59.875 164.265625 57.37475586 164.37915039 C56.29073486 164.37391357 55.20671387 164.36867676 54.08984375 164.36328125 C52.92001953 164.36005859 51.75019531 164.35683594 50.54492188 164.35351562 C49.31322266 164.34513672 48.08152344 164.33675781 46.8125 164.328125 C44.95915039 164.32135742 44.95915039 164.32135742 43.06835938 164.31445312 C40.00385883 164.30262108 36.93945279 164.28613673 33.875 164.265625 C31.48757033 157.72811215 29.92914428 151.23174678 28.6875 144.390625 C28.42163086 142.98683594 28.42163086 142.98683594 28.15039062 141.5546875 C26.875 134.70007843 26.875 134.70007843 26.875 131.265625 C14.665 131.265625 2.455 131.265625 -10.125 131.265625 C-10.455 134.565625 -10.785 137.865625 -11.125 141.265625 C-11.40967381 143.18792081 -11.71685881 145.10725707 -12.0625 147.01953125 C-12.23523438 147.97537109 -12.40796875 148.93121094 -12.5859375 149.91601562 C-12.85277344 151.35750977 -12.85277344 151.35750977 -13.125 152.828125 C-13.30289062 153.82392578 -13.48078125 154.81972656 -13.6640625 155.84570312 C-13.83679688 156.78994141 -14.00953125 157.73417969 -14.1875 158.70703125 C-14.34347656 159.55982666 -14.49945313 160.41262207 -14.66015625 161.29125977 C-15.125 163.265625 -15.125 163.265625 -16.125 164.265625 C-18.05167507 164.35310707 -19.98151861 164.37259834 -21.91015625 164.36328125 C-23.07998047 164.36005859 -24.24980469 164.35683594 -25.45507812 164.35351562 C-26.68677734 164.34513672 -27.91847656 164.33675781 -29.1875 164.328125 C-31.04084961 164.32135742 -31.04084961 164.32135742 -32.93164062 164.31445312 C-35.99614117 164.30262108 -39.06054721 164.28613673 -42.125 164.265625 C-43.31561108 159.96332758 -42.85993737 156.80398678 -41.9375 152.46484375 C-41.7311644 151.47524406 -41.7311644 151.47524406 -41.5206604 150.46565247 C-41.06494066 148.29268051 -40.59513971 146.12301878 -40.125 143.953125 C-39.79922345 142.41552203 -39.47420286 140.87775871 -39.14990234 139.33984375 C-38.15611219 134.64526907 -37.14288043 129.95502736 -36.125 125.265625 C-35.9767981 124.58147522 -35.82859619 123.89732544 -35.67590332 123.19244385 C-34.28084291 116.75423806 -32.87253142 110.31901748 -31.45367432 103.88601685 C-29.32751049 94.24027664 -27.26388632 84.5815991 -25.20462036 74.92138672 C-21.78451715 58.88203364 -18.27952421 42.86650163 -14.625 26.87890625 C-13.67891856 22.73623433 -12.75781959 18.59020264 -11.875 14.43359375 C-11.60006714 13.1487207 -11.60006714 13.1487207 -11.31958008 11.83789062 C-10.99537652 10.31318172 -10.67693414 8.78722905 -10.3659668 7.25976562 C-8.87409133 0.27495674 -6.89254217 0.0118023 0 0 Z " fill="#E8E1DA" transform="translate(463.125,62.734375)"/>
<path d="M0 0 C0.7027002 -0.00191345 1.40540039 -0.0038269 2.12939453 -0.00579834 C3.61556354 -0.00715975 5.10174445 -0.00346632 6.58789062 0.00488281 C8.86615646 0.01558346 11.14363377 0.00498661 13.421875 -0.0078125 C14.86458508 -0.0064909 16.30729466 -0.00392849 17.75 0 C19.06742188 0.00225586 20.38484375 0.00451172 21.7421875 0.00683594 C24.875 0.265625 24.875 0.265625 26.875 2.265625 C27.53896324 4.61999974 28.10166076 6.92787028 28.609375 9.31640625 C28.76770813 10.03334152 28.92604126 10.75027679 29.08917236 11.48893738 C29.60849818 13.85045173 30.11688348 16.21417562 30.625 18.578125 C30.985198 20.22796925 31.34587988 21.87770793 31.70703125 23.52734375 C34.08463081 34.42733636 36.36156631 45.34696382 38.59155273 56.27807617 C40.67088736 66.41976927 42.91915859 76.51945303 45.18832397 86.61987305 C48.55645272 101.63068174 51.71418023 116.68290899 54.81762695 131.75048828 C55.17616399 133.48478969 55.53511967 135.21900462 55.89453125 136.953125 C56.06487381 137.77618134 56.23521637 138.59923767 56.41072083 139.44723511 C57.56579338 144.96282859 58.87163309 150.4204365 60.3659668 155.85546875 C60.90519793 158.40860532 61.03705734 160.66365724 60.875 163.265625 C59.875 164.265625 59.875 164.265625 57.37475586 164.37915039 C56.29073486 164.37391357 55.20671387 164.36867676 54.08984375 164.36328125 C52.92001953 164.36005859 51.75019531 164.35683594 50.54492188 164.35351562 C49.31322266 164.34513672 48.08152344 164.33675781 46.8125 164.328125 C44.95915039 164.32135742 44.95915039 164.32135742 43.06835938 164.31445312 C40.00385883 164.30262108 36.93945279 164.28613673 33.875 164.265625 C31.48757033 157.72811215 29.92914428 151.23174678 28.6875 144.390625 C28.42163086 142.98683594 28.42163086 142.98683594 28.15039062 141.5546875 C26.875 134.70007843 26.875 134.70007843 26.875 131.265625 C14.665 131.265625 2.455 131.265625 -10.125 131.265625 C-10.455 134.565625 -10.785 137.865625 -11.125 141.265625 C-11.40967381 143.18792081 -11.71685881 145.10725707 -12.0625 147.01953125 C-12.23523438 147.97537109 -12.40796875 148.93121094 -12.5859375 149.91601562 C-12.85277344 151.35750977 -12.85277344 151.35750977 -13.125 152.828125 C-13.30289063 153.82392578 -13.48078125 154.81972656 -13.6640625 155.84570312 C-13.83679688 156.78994141 -14.00953125 157.73417969 -14.1875 158.70703125 C-14.34347656 159.55982666 -14.49945313 160.41262207 -14.66015625 161.29125977 C-15.125 163.265625 -15.125 163.265625 -16.125 164.265625 C-18.05167507 164.35310707 -19.98151861 164.37259834 -21.91015625 164.36328125 C-23.07998047 164.36005859 -24.24980469 164.35683594 -25.45507812 164.35351562 C-26.68677734 164.34513672 -27.91847656 164.33675781 -29.1875 164.328125 C-31.04084961 164.32135742 -31.04084961 164.32135742 -32.93164062 164.31445312 C-35.99614117 164.30262108 -39.06054721 164.28613673 -42.125 164.265625 C-43.31561108 159.96332758 -42.85993737 156.80398678 -41.9375 152.46484375 C-41.7311644 151.47524406 -41.7311644 151.47524406 -41.5206604 150.46565247 C-41.06494066 148.29268051 -40.59513971 146.12301878 -40.125 143.953125 C-39.79922345 142.41552203 -39.47420286 140.87775871 -39.14990234 139.33984375 C-38.15611219 134.64526907 -37.14288043 129.95502736 -36.125 125.265625 C-35.9767981 124.58147522 -35.82859619 123.89732544 -35.67590332 123.19244385 C-34.28084291 116.75423806 -32.87253142 110.31901748 -31.45367432 103.88601685 C-29.32751049 94.24027664 -27.26388632 84.5815991 -25.20462036 74.92138672 C-21.78451715 58.88203364 -18.27952421 42.86650163 -14.625 26.87890625 C-13.67891856 22.73623433 -12.75781959 18.59020264 -11.875 14.43359375 C-11.60006714 13.1487207 -11.60006714 13.1487207 -11.31958008 11.83789062 C-10.99537652 10.31318172 -10.67693414 8.78722905 -10.3659668 7.25976562 C-8.87409133 0.27495674 -6.89254217 0.0118023 0 0 Z " fill="#E8E1DA" transform="translate(107.125,62.734375)"/>
<path d="M0 0 C2.90571822 0.0214103 5.80895747 0.00015132 8.71459961 -0.02539062 C30.71344715 -0.05961428 30.71344715 -0.05961428 39.41577148 7.64648438 C46.69017774 15.9324269 47.04699297 25.38243005 46.83496094 35.89282227 C46.79022527 38.11106894 46.77341198 40.32822948 46.76147461 42.546875 C46.65885658 53.34089928 46.65885658 53.34089928 45.47827148 54.52148438 C43.63668126 54.62108058 41.79130181 54.65228848 39.94702148 54.65429688 C38.82682617 54.65558594 37.70663086 54.656875 36.55249023 54.65820312 C35.37299805 54.65433594 34.19350586 54.65046875 32.97827148 54.64648438 C31.2090332 54.65228516 31.2090332 54.65228516 29.40405273 54.65820312 C27.72375977 54.65626953 27.72375977 54.65626953 26.00952148 54.65429688 C24.97375977 54.65316895 23.93799805 54.65204102 22.87084961 54.65087891 C20.47827148 54.52148438 20.47827148 54.52148438 19.47827148 53.52148438 C19.34571245 52.08123325 19.2750337 50.63515661 19.23217773 49.18945312 C19.19930664 48.30837891 19.16643555 47.42730469 19.13256836 46.51953125 C19.07175684 44.65766372 19.01441996 42.79567919 18.96069336 40.93359375 C18.9265332 40.04865234 18.89237305 39.16371094 18.85717773 38.25195312 C18.83212158 37.44137451 18.80706543 36.6307959 18.78125 35.7956543 C18.44534316 33.27432296 17.87678583 31.64463275 16.47827148 29.52148438 C12.02135246 28.0358447 7.64701984 28.29648437 2.97827148 28.27148438 C2.0153418 28.25085938 1.05241211 28.23023437 0.06030273 28.20898438 C-0.86395508 28.20382813 -1.78821289 28.19867188 -2.74047852 28.19335938 C-4.00794922 28.17934082 -4.00794922 28.17934082 -5.30102539 28.16503906 C-8.07495253 28.61028243 -8.7894128 29.34737802 -10.52172852 31.52148438 C-10.96999893 33.49343697 -10.96999893 33.49343697 -10.90267944 35.68968201 C-10.91113892 36.53785492 -10.91959839 37.38602783 -10.92831421 38.25990295 C-10.92224152 39.18725754 -10.91616882 40.11461212 -10.90991211 41.07006836 C-10.91779755 42.53875366 -10.91779755 42.53875366 -10.92584229 44.03710938 C-10.93906944 47.28076021 -10.93029375 50.5239221 -10.92016602 53.76757812 C-10.92218613 56.01815383 -10.92509704 58.2687289 -10.92886353 60.51930237 C-10.9332907 65.23957543 -10.92684365 69.95967834 -10.9128418 74.67993164 C-10.89575966 80.73412611 -10.90558269 86.78792133 -10.92355919 92.8421011 C-10.93439468 97.49090081 -10.93095156 102.13960573 -10.92317581 106.78840828 C-10.92117265 109.02076324 -10.92363712 111.25312677 -10.93061447 113.48547173 C-10.93822381 116.60504859 -10.92663108 119.72397732 -10.90991211 122.84350586 C-10.9159848 123.76883621 -10.9220575 124.69416656 -10.92831421 125.64753723 C-10.89643716 130.57336715 -10.89643716 130.57336715 -9.13427734 135.09500122 C-6.96976852 137.00975588 -5.67824637 137.02396259 -2.81079102 137.01757812 C-1.43793945 137.01854492 -1.43793945 137.01854492 -0.03735352 137.01953125 C0.91655273 136.99955078 1.87045898 136.97957031 2.85327148 136.95898438 C4.2725293 136.96961914 4.2725293 136.96961914 5.72045898 136.98046875 C12.62968423 136.95710307 12.62968423 136.95710307 18.47827148 133.52148438 C19.00795251 130.8883755 19.20046539 128.86757556 19.18530273 126.22851562 C19.20042404 125.52248703 19.21554535 124.81645844 19.23112488 124.08903503 C19.27406638 121.83702828 19.28284481 119.58636004 19.29077148 117.33398438 C19.3139112 115.80595384 19.33927547 114.27795525 19.36694336 112.75 C19.42985783 109.00704285 19.46214279 105.26492373 19.47827148 101.52148438 C18.08801758 101.53888672 18.08801758 101.53888672 16.66967773 101.55664062 C15.47213867 101.56566406 14.27459961 101.5746875 13.04077148 101.58398438 C11.84581055 101.59558594 10.65084961 101.6071875 9.41967773 101.61914062 C6.47827148 101.52148438 6.47827148 101.52148438 5.47827148 100.52148438 C5.37867528 98.67989415 5.34746738 96.8345147 5.34545898 94.99023438 C5.34352539 93.30994141 5.34352539 93.30994141 5.34155273 91.59570312 C5.34541992 90.41621094 5.34928711 89.23671875 5.35327148 88.02148438 C5.3474707 86.25224609 5.3474707 86.25224609 5.34155273 84.44726562 C5.3428418 83.32707031 5.34413086 82.206875 5.34545898 81.05273438 C5.34658691 80.01697266 5.34771484 78.98121094 5.34887695 77.9140625 C5.47827148 75.52148438 5.47827148 75.52148438 6.47827148 74.52148438 C9.35091205 74.42041564 12.19900777 74.38178766 15.07202148 74.38867188 C15.93388062 74.38771515 16.79573975 74.38675842 17.68371582 74.38577271 C19.50960361 74.38509088 21.3354938 74.38694533 23.16137695 74.39111328 C25.96628227 74.39646151 28.77102744 74.39116838 31.57592773 74.38476562 C33.34545934 74.38542641 35.11499085 74.38670757 36.88452148 74.38867188 C37.72930054 74.38664764 38.57407959 74.38462341 39.44445801 74.38253784 C45.36332117 74.40653406 45.36332117 74.40653406 46.47827148 75.52148438 C46.58822379 77.55959207 46.62739945 79.60154202 46.6394043 81.64257812 C46.64901184 82.95484375 46.65861938 84.26710938 46.66851807 85.61914062 C46.67336863 87.06575345 46.67764682 88.51236828 46.68139648 89.95898438 C46.68714887 91.43815106 46.69290659 92.91731773 46.69866943 94.39648438 C46.70919569 97.50700224 46.71502615 100.61749416 46.71850586 103.72802734 C46.72396166 107.69449332 46.74791943 111.66061096 46.77647781 115.62696838 C46.79520909 118.68809974 46.80031557 121.74914946 46.80184174 124.81033325 C46.80485061 126.27102541 46.81281888 127.73171675 46.82602692 129.19235229 C46.92155069 140.57898302 46.31543699 149.34641865 38.23608398 157.86523438 C31.48582039 164.22548274 23.57158666 164.83490827 14.73999023 164.85742188 C13.35877739 164.86740707 13.35877739 164.86740707 11.94966125 164.87759399 C10.00910425 164.88767812 8.06851287 164.89241233 6.12792969 164.89208984 C3.18487374 164.89645604 0.24332766 164.9328015 -2.69946289 164.97070312 C-4.59464012 164.97657387 -6.48982438 164.98054154 -8.38500977 164.98242188 C-9.25201004 164.99679291 -10.11901031 165.01116394 -11.01228333 165.02597046 C-18.98464007 164.96739918 -26.35244892 162.83948759 -32.39672852 157.45898438 C-39.19142271 149.70720497 -40.11390035 140.23839743 -40.03930664 130.32397461 C-40.04982056 128.57538651 -40.04982056 128.57538651 -40.06054688 126.79147339 C-40.07802988 122.97075988 -40.06653855 119.15079805 -40.05297852 115.33007812 C-40.05567602 112.65689691 -40.05955543 109.98373781 -40.0645752 107.31056213 C-40.0718243 101.72168966 -40.06233536 96.13302958 -40.04321289 90.54418945 C-40.02143849 84.10641997 -40.02851026 77.66915723 -40.05051851 71.23139995 C-40.06873841 65.67688396 -40.07119919 60.12251947 -40.06076384 54.56798321 C-40.05456619 51.26231541 -40.05518814 47.95693452 -40.06690979 44.65127373 C-40.07711864 40.96370514 -40.06151222 37.27709704 -40.03930664 33.58959961 C-40.04740356 32.5113945 -40.05550049 31.43318939 -40.06384277 30.3223114 C-39.96787805 21.67845993 -38.20153299 14.2625336 -32.39672852 7.64648438 C-22.96932809 -0.68550013 -11.90244376 -0.1043986 0 0 Z " fill="#E9E2DB" transform="translate(815.521728515625,62.478515625)"/>
<path d="M0 0 C1.06734375 -0.00257812 2.1346875 -0.00515625 3.234375 -0.0078125 C4.91273438 0.00378906 4.91273438 0.00378906 6.625 0.015625 C7.74390625 0.00789063 8.8628125 0.00015625 10.015625 -0.0078125 C11.08296875 -0.00523438 12.1503125 -0.00265625 13.25 0 C14.23226563 0.00225586 15.21453125 0.00451172 16.2265625 0.00683594 C18.625 0.265625 18.625 0.265625 20.625 2.265625 C20.8811264 4.51518822 20.8811264 4.51518822 20.89001465 7.3765564 C20.90242439 9.00014824 20.90242439 9.00014824 20.91508484 10.65653992 C20.91410294 11.84931046 20.91312103 13.04208099 20.91210938 14.27099609 C20.91894241 15.52307358 20.92577545 16.77515106 20.93281555 18.06517029 C20.9464359 20.79189706 20.95645847 23.51836629 20.96052551 26.24509811 C20.96722925 30.55626524 20.98897265 34.86727503 21.01306152 39.17837524 C21.06207775 48.33242166 21.09435861 57.48650143 21.125 66.640625 C21.15807239 76.51558883 21.19400166 86.39049128 21.24913073 96.26536047 C21.27248562 100.55108358 21.28622203 104.83669776 21.29262543 109.12247825 C21.29713344 111.14724446 21.3061434 113.1719302 21.31718445 115.19667053 C21.33062087 117.66563519 21.33695459 120.13465258 21.33491516 122.60365295 C21.34732491 124.23570427 21.34732491 124.23570427 21.35998535 125.90072632 C21.36291847 126.84573187 21.36585159 127.79073742 21.3688736 128.7643795 C21.64002692 131.41237292 22.19284657 133.03400742 23.625 135.265625 C27.03512187 136.97068594 30.80359819 136.53424677 34.5625 136.578125 C35.38685547 136.60712891 36.21121094 136.63613281 37.06054688 136.66601562 C37.85396484 136.67439453 38.64738281 136.68277344 39.46484375 136.69140625 C40.19050537 136.70598877 40.91616699 136.72057129 41.66381836 136.7355957 C43.77138175 136.419533 43.77138175 136.419533 45.22349453 134.57393074 C46.92236358 131.77586162 47.00338748 130.12129749 47.01026917 126.86276245 C47.01991699 125.76631409 47.02956482 124.66986572 47.039505 123.54019165 C47.03492783 122.34211884 47.03035065 121.14404602 47.02563477 119.90966797 C47.03261383 118.64433228 47.0395929 117.37899658 47.04678345 116.07531738 C47.06188605 113.32628223 47.06767178 110.57744115 47.06625557 107.82836533 C47.06422222 103.4839472 47.08378481 99.13979038 47.10643005 94.79544067 C47.14739769 86.36159109 47.16601351 77.92776214 47.18260193 69.49383545 C47.20496258 58.75097221 47.23841003 48.00816913 47.28980106 37.26540482 C47.30975933 32.94398654 47.31930505 28.62270517 47.32075322 24.30124259 C47.32283725 22.26297259 47.32937994 20.22477581 47.33792114 18.18652344 C47.34823031 15.69770258 47.35130911 13.20883781 47.34602356 10.72000122 C47.35285156 9.6291925 47.35967957 8.53838379 47.36671448 7.41452026 C47.36834878 6.46289442 47.36998308 5.51126858 47.37166691 4.53080559 C47.625 2.265625 47.625 2.265625 49.625 0.265625 C51.93164062 0.00683594 51.93164062 0.00683594 54.78125 0 C56.31458984 -0.00386719 56.31458984 -0.00386719 57.87890625 -0.0078125 C58.95011719 -0.00007813 60.02132812 0.00765625 61.125 0.015625 C62.73181641 0.00402344 62.73181641 0.00402344 64.37109375 -0.0078125 C65.39332031 -0.00523438 66.41554688 -0.00265625 67.46875 0 C68.40912109 0.00225586 69.34949219 0.00451172 70.31835938 0.00683594 C72.625 0.265625 72.625 0.265625 74.625 2.265625 C74.88226891 4.66742611 74.88226891 4.66742611 74.89242554 7.74705505 C74.90095551 8.91188919 74.90948547 10.07672333 74.91827393 11.27685547 C74.91736755 12.56148682 74.91646118 13.84611816 74.91552734 15.16967773 C74.92150966 16.53142161 74.92831451 17.89316209 74.93588257 19.25489807 C74.9535928 22.9620296 74.9582404 26.66906885 74.95951414 30.37623858 C74.96093492 32.6950144 74.96520341 35.01376671 74.97050858 37.3325367 C74.98903439 45.43060927 74.99717712 53.52861592 74.99560547 61.62670898 C74.99440746 69.15882585 75.0154358 76.69065458 75.0470928 84.22269863 C75.07333019 90.69760554 75.08396946 97.1724189 75.08269465 103.6473785 C75.08218665 107.51045372 75.08777766 111.3732737 75.10905075 115.2362957 C75.12855609 118.87829774 75.12847485 122.51980467 75.11401749 126.16182518 C75.11096095 128.11945395 75.12752479 130.07708339 75.14489746 132.03463745 C75.082506 140.8866227 73.9625185 149.00101803 68.375 156.140625 C60.46419869 162.25351692 55.07632612 164.41560375 45.01953125 164.46875 C44.18089035 164.47445007 43.34224945 164.48015015 42.47819519 164.48602295 C40.70381932 164.49545789 38.92942605 164.50200094 37.1550293 164.50585938 C34.46436215 164.51552847 31.77447123 164.54655057 29.08398438 164.578125 C27.35417117 164.58465952 25.62435253 164.58990822 23.89453125 164.59375 C23.10045364 164.6060968 22.30637604 164.6184436 21.48823547 164.63116455 C13.14430293 164.59852593 5.59379936 162.48424723 -0.44374752 156.53639793 C-7.4339091 148.31734326 -8.09568975 138.41164667 -7.97436523 128.08349609 C-7.97623409 126.70567382 -7.98028101 125.32785307 -7.98631287 123.95004272 C-7.99619521 120.24796052 -7.97528001 116.54665743 -7.94783282 112.84468794 C-7.92383728 108.95927025 -7.9269466 105.07386359 -7.92652893 101.18838501 C-7.92191894 94.67737782 -7.89838515 88.1666655 -7.86206055 81.65576172 C-7.82016179 74.12559814 -7.80273463 66.5956987 -7.7994408 59.06542528 C-7.7958467 51.03514424 -7.7769997 43.00495813 -7.75232053 34.97471666 C-7.74608924 32.66238778 -7.74245497 30.3500661 -7.73928642 28.03773117 C-7.7334001 24.41457182 -7.71712741 20.79160209 -7.69268227 17.16852188 C-7.68166059 15.20095615 -7.68040161 13.2333434 -7.67938232 11.26574707 C-7.6694072 10.10235809 -7.65943207 8.93896912 -7.64915466 7.74032593 C-7.64450416 6.72534719 -7.63985365 5.71036846 -7.63506222 4.6646328 C-7.10294938 -0.24397273 -4.21287766 0.00967524 0 0 Z " fill="#E9E2DA" transform="translate(316.375,62.734375)"/>
<path d="M0 0 C1.0305249 0.00410889 2.0610498 0.00821777 3.12280273 0.01245117 C4.23977539 0.01438477 5.35674805 0.01631836 6.50756836 0.01831055 C8.26423828 0.03667969 8.26423828 0.03667969 10.05639648 0.05541992 C11.23137695 0.05606445 12.40635742 0.05670898 13.61694336 0.05737305 C22.35377508 0.10279852 22.35377508 0.10279852 23.49389648 1.24291992 C23.59021694 3.00185422 23.61577158 4.76469151 23.614151 6.52626038 C23.61552567 7.67195999 23.61690033 8.81765961 23.61831665 9.99807739 C23.61472137 11.26618256 23.6111261 12.53428772 23.60742188 13.84082031 C23.60714 15.18085223 23.60729774 16.52088431 23.60786438 17.86091614 C23.60815235 21.5095143 23.60225568 25.15807987 23.59529042 28.80667043 C23.58905683 32.61569509 23.58845308 36.42472042 23.58726501 40.23374939 C23.58415172 47.45149746 23.57593835 54.66923047 23.56591552 61.88697189 C23.55475434 70.10207249 23.54924393 78.3171738 23.54422009 86.53228009 C23.53375573 103.43583543 23.51615632 120.33937608 23.49389648 137.24291992 C24.13060776 137.24069931 24.76731903 137.2384787 25.42332458 137.2361908 C32.02504925 137.21413952 38.62676352 137.19901399 45.22851562 137.18798828 C47.69531682 137.18294636 50.16211501 137.17611302 52.62890625 137.16748047 C56.16594177 137.15540868 59.70293794 137.14969036 63.23999023 137.14526367 C64.35039169 137.14010239 65.46079315 137.1349411 66.60484314 137.12962341 C68.13631737 137.12951012 68.13631737 137.12951012 69.69873047 137.12939453 C70.60251938 137.12717392 71.50630829 137.12495331 72.43748474 137.12266541 C74.49389648 137.24291992 74.49389648 137.24291992 75.49389648 138.24291992 C75.59349269 140.08451015 75.62470059 141.92988959 75.62670898 143.77416992 C75.62799805 144.89436523 75.62928711 146.01456055 75.63061523 147.16870117 C75.62674805 148.34819336 75.62288086 149.52768555 75.61889648 150.74291992 C75.62276367 151.92241211 75.62663086 153.1019043 75.63061523 154.31713867 C75.62932617 155.43733398 75.62803711 156.5575293 75.62670898 157.71166992 C75.62558105 158.74743164 75.62445312 159.78319336 75.62329102 160.8503418 C75.49389648 163.24291992 75.49389648 163.24291992 74.49389648 164.24291992 C72.0599363 164.33790638 69.65446696 164.36850409 67.22021484 164.35644531 C66.07882805 164.35666435 66.07882805 164.35666435 64.91438293 164.35688782 C62.3874735 164.35618854 59.86063687 164.34839547 57.33374023 164.34057617 C55.58639059 164.33871204 53.83904042 164.33728812 52.09169006 164.33628845 C47.48357714 164.33246285 42.87549553 164.32263221 38.26739502 164.31158447 C33.56881128 164.30137126 28.87022249 164.29679103 24.17163086 164.29174805 C14.94570561 164.28100998 5.71980365 164.26393305 -3.50610352 164.24291992 C-4.91352751 161.42807193 -4.63532585 159.09128554 -4.63981628 155.94165039 C-4.64208184 155.28798429 -4.6443474 154.6343182 -4.64668161 153.96084404 C-4.65303473 151.76058077 -4.65219141 149.56037888 -4.65136719 147.36010742 C-4.65435782 145.786722 -4.65776013 144.21333732 -4.6615448 142.63995361 C-4.67039775 138.35907864 -4.67272343 134.07822364 -4.67336059 129.79734039 C-4.67430851 126.22849502 -4.67798536 122.65965434 -4.68153268 119.09081078 C-4.68968181 110.67471455 -4.69211646 102.25862902 -4.69140625 93.8425293 C-4.69080501 85.14812361 -4.70136497 76.45377988 -4.71714991 67.75938988 C-4.73020421 60.30459996 -4.73559105 52.84983034 -4.73495084 45.39502907 C-4.73469527 40.9381963 -4.7375788 36.48141859 -4.74812889 32.02459717 C-4.75777471 27.83528981 -4.7579134 23.64609054 -4.75061226 19.45677948 C-4.74956208 17.91601149 -4.75195476 16.37523688 -4.75797272 14.83448029 C-4.76563483 12.7375875 -4.76108684 10.64107347 -4.75334167 8.54418945 C-4.75388644 7.36873566 -4.75443121 6.19328186 -4.75499249 4.98220825 C-4.42523044 1.35282551 -3.66704817 0.35545182 0 0 Z " fill="#E9E2DB" transform="translate(556.506103515625,62.757080078125)"/>
<path d="M0 0 C1.5151905 2.37340386 2.77883156 4.60709943 4 7.125 C4.52219116 8.19536499 4.52219116 8.19536499 5.05493164 9.28735352 C10.26164245 20.39443434 12.12330961 30.99530684 12.4296875 43.17382812 C12.71782413 49.31113826 14.52483647 52.9046912 19 57 C21 59 21 59 21 62 C17.37 61.67 13.74 61.34 10 61 C3.13901155 80.87591691 1.29771479 95.5795168 7.54101562 116.02392578 C8 118 8 118 8 122 C4.35496139 121.66863285 2.34792985 120.60953373 -0.4375 118.375 C-3.04954757 116.41879121 -3.6670043 116 -7.0625 116 C-10.08176169 116.94962028 -10.08176169 116.94962028 -13.0625 118.5625 C-16.11736954 120.05743616 -17.68315521 120.12864659 -21 120 C-19.43503449 114.3635795 -17.60002427 109.0123796 -15.3125 103.625 C-10.81731388 91.88832864 -13.36819249 82.38849231 -16.90625 70.80859375 C-18 67 -18 67 -18 64 C-19.85625 64.0309375 -19.85625 64.0309375 -21.75 64.0625 C-24.6640825 64.06766681 -27.20953327 63.93015558 -30 63 C-28.99889887 60.0801217 -28.07292795 58.08299689 -26.01953125 55.74609375 C-23.64383661 52.51570046 -23.12061167 50.18541063 -22.4375 46.25 C-22.31874512 45.60095703 -22.19999023 44.95191406 -22.07763672 44.28320312 C-21.44486584 40.78503894 -20.8831618 37.276208 -20.32421875 33.765625 C-16.1086632 7.73240653 -16.1086632 7.73240653 -8 -1 C-4.67725566 -2.3782225 -2.87268707 -2.16573674 0 0 Z " fill="#316C52" transform="translate(709,86)"/>
<path d="M0 0 C1.16692383 -0.00290039 1.16692383 -0.00290039 2.35742188 -0.00585938 C3.15599609 0.01798828 3.95457031 0.04183594 4.77734375 0.06640625 C5.57978516 0.05544922 6.38222656 0.04449219 7.20898438 0.03320312 C12.94263243 0.10457634 12.94263243 0.10457634 15.81018066 2.05163574 C18.71189298 5.97805066 18.2658247 9.63516021 18.21655273 14.39868164 C18.22195572 15.38931107 18.2273587 16.37994049 18.23292542 17.40058899 C18.24543652 20.67621705 18.2289065 23.95097037 18.2109375 27.2265625 C18.21109242 29.50052435 18.21258023 31.77448648 18.21534729 34.04844666 C18.21673231 38.81407341 18.2041546 43.57939957 18.18139648 48.3449707 C18.15299573 54.46090616 18.15575232 60.57634263 18.1684866 66.6923151 C18.17543287 71.38740825 18.16766675 76.08238555 18.15522957 80.77746391 C18.15070599 83.03296909 18.15038614 85.28848667 18.15429497 87.543993 C18.15719725 90.69243102 18.14074745 93.84017495 18.11889648 96.98852539 C18.12339813 97.92523071 18.12789978 98.86193604 18.13253784 99.82702637 C18.12263321 100.68361343 18.11272858 101.5402005 18.1025238 102.42274475 C18.10009391 103.16696717 18.09766401 103.91118959 18.09516048 104.67796421 C17.60789773 107.17751605 16.66677871 108.04419153 14.71484375 109.62890625 C11.45800972 111.25732326 7.9152604 110.89686202 4.33984375 110.94140625 C3.18742188 110.98491211 3.18742188 110.98491211 2.01171875 111.02929688 C-3.67811543 111.0932829 -3.67811543 111.0932829 -6.76171875 108.734375 C-9.8620478 104.44956126 -9.45406559 100.51577181 -9.47802734 95.39331055 C-9.48620483 94.43544647 -9.49438232 93.4775824 -9.50280762 92.49069214 C-9.52768035 89.31150951 -9.54418182 86.13237156 -9.55859375 82.953125 C-9.56391743 81.86897623 -9.5692411 80.78482746 -9.5747261 79.6678257 C-9.60146492 73.93033174 -9.62083813 68.1928596 -9.63525391 62.45532227 C-9.65191013 56.52327007 -9.69669443 50.59177254 -9.74762535 44.65993023 C-9.7812476 40.10375821 -9.79282583 35.54771869 -9.79848099 30.9914341 C-9.80520655 28.80452036 -9.82046227 26.61761574 -9.8443718 24.43082237 C-9.87591985 21.37098074 -9.87607547 18.31264649 -9.86865234 15.25268555 C-9.88505768 14.3480809 -9.90146301 13.44347626 -9.91836548 12.51145935 C-9.87373393 8.02074737 -9.74191777 6.21125636 -6.88346863 2.56686401 C-4.26083778 0.61076826 -3.20045067 -0.0033036 0 0 Z " fill="#306C51" transform="translate(233.28515625,89.37109375)"/>
<path d="M0 0 C0.66 0.33 1.32 0.66 2 1 C2.59082031 3.25195312 2.59082031 3.25195312 3.078125 6.28125 C3.36103394 7.98643799 3.36103394 7.98643799 3.6496582 9.72607422 C3.847771 10.97146973 4.04588379 12.21686523 4.25 13.5 C4.68439876 16.13833612 5.120446 18.77635119 5.55859375 21.4140625 C5.67240891 22.10436554 5.78622406 22.79466858 5.90348816 23.50588989 C6.76390454 28.68976038 7.69541439 33.85803862 8.66015625 39.0234375 C8.79809601 39.76487 8.93603577 40.50630249 9.07815552 41.27020264 C9.62166229 44.18784965 10.16594086 47.10529086 10.72106934 50.02075195 C11.107331 52.05190459 11.48590815 54.08436756 11.86328125 56.1171875 C12.08282471 57.27847168 12.30236816 58.43975586 12.52856445 59.63623047 C13 63 13 63 13 70 C4.75 70 -3.5 70 -12 70 C-10.87505658 59.87550919 -10.87505658 59.87550919 -10.19970703 56.20898438 C-10.04929962 55.38362183 -9.89889221 54.55825928 -9.743927 53.70788574 C-9.58350922 52.84522095 -9.42309143 51.98255615 -9.2578125 51.09375 C-9.08877411 50.170177 -8.91973572 49.246604 -8.74557495 48.29504395 C-8.2083168 45.36281496 -7.66682737 42.43138776 -7.125 39.5 C-6.59290907 36.60624018 -6.06171393 33.71231712 -5.53070068 30.81835938 C-5.18424716 28.93027461 -4.83744971 27.04225292 -4.49029541 25.15429688 C-2.95215854 16.7767367 -1.46513683 8.39060213 0 0 Z " fill="#326D52" transform="translate(471,100)"/>
<path d="M0 0 C0.66 0.33 1.32 0.66 2 1 C2.59082031 3.25195312 2.59082031 3.25195312 3.078125 6.28125 C3.36103394 7.98643799 3.36103394 7.98643799 3.6496582 9.72607422 C3.847771 10.97146973 4.04588379 12.21686523 4.25 13.5 C4.68439876 16.13833612 5.120446 18.77635119 5.55859375 21.4140625 C5.67240891 22.10436554 5.78622406 22.79466858 5.90348816 23.50588989 C6.76390454 28.68976038 7.69541439 33.85803862 8.66015625 39.0234375 C8.79809601 39.76487 8.93603577 40.50630249 9.07815552 41.27020264 C9.62166229 44.18784965 10.16594086 47.10529086 10.72106934 50.02075195 C11.107331 52.05190459 11.48590815 54.08436756 11.86328125 56.1171875 C12.08282471 57.27847168 12.30236816 58.43975586 12.52856445 59.63623047 C13 63 13 63 13 70 C4.75 70 -3.5 70 -12 70 C-10.87505658 59.87550919 -10.87505658 59.87550919 -10.19970703 56.20898438 C-10.04929962 55.38362183 -9.89889221 54.55825928 -9.743927 53.70788574 C-9.58350922 52.84522095 -9.42309143 51.98255615 -9.2578125 51.09375 C-9.08877411 50.170177 -8.91973572 49.246604 -8.74557495 48.29504395 C-8.2083168 45.36281496 -7.66682737 42.43138776 -7.125 39.5 C-6.59290907 36.60624018 -6.06171393 33.71231712 -5.53070068 30.81835938 C-5.18424716 28.93027461 -4.83744971 27.04225292 -4.49029541 25.15429688 C-2.95215854 16.7767367 -1.46513683 8.39060213 0 0 Z " fill="#326D52" transform="translate(115,100)"/>
<path d="M0 0 C-1.65863505 4.32504836 -4.871041 7.09418825 -8.125 10.25 C-8.68832031 10.80429687 -9.25164063 11.35859375 -9.83203125 11.9296875 C-11.21686028 13.29104485 -12.60783204 14.64614859 -14 16 C-14.66 15.67 -15.32 15.34 -16 15 C-2.63106796 0 -2.63106796 0 0 0 Z " fill="#81A696" transform="translate(33,18)"/>
</svg>
