<svg xmlns="http://www.w3.org/2000/svg" xmlns:xlink="http://www.w3.org/1999/xlink" width="794" zoomAndPan="magnify" viewBox="0 0 595.5 842.249979" height="1123" preserveAspectRatio="xMidYMid meet" version="1.0"><defs><g/><clipPath id="4681b8b97c"><path d="M 81.140625 353.875 L 514 353.875 L 514 487.265625 L 81.140625 487.265625 Z M 81.140625 353.875 " clip-rule="nonzero"/></clipPath><clipPath id="458a392422"><path d="M 116.359375 353.875 L 478.417969 353.875 C 497.867188 353.875 513.636719 369.644531 513.636719 389.09375 L 513.636719 452.046875 C 513.636719 471.496094 497.867188 487.265625 478.417969 487.265625 L 116.359375 487.265625 C 96.910156 487.265625 81.140625 471.496094 81.140625 452.046875 L 81.140625 389.09375 C 81.140625 369.644531 96.910156 353.875 116.359375 353.875 Z M 116.359375 353.875 " clip-rule="nonzero"/></clipPath><clipPath id="e237ad4184"><path d="M 90.625 361.75 L 504.257812 361.75 L 504.257812 479.394531 L 90.625 479.394531 Z M 90.625 361.75 " clip-rule="nonzero"/></clipPath><clipPath id="72bb262c43"><path d="M 118.355469 361.75 L 476.410156 361.75 C 483.765625 361.75 490.816406 364.671875 496.015625 369.871094 C 501.214844 375.070312 504.136719 382.121094 504.136719 389.476562 L 504.136719 451.660156 C 504.136719 459.011719 501.214844 466.066406 496.015625 471.265625 C 490.816406 476.464844 483.765625 479.382812 476.410156 479.382812 L 118.355469 479.382812 C 111.003906 479.382812 103.953125 476.464844 98.753906 471.265625 C 93.554688 466.066406 90.632812 459.011719 90.632812 451.660156 L 90.632812 389.476562 C 90.632812 382.121094 93.554688 375.070312 98.753906 369.871094 C 103.953125 364.671875 111.003906 361.75 118.355469 361.75 Z M 118.355469 361.75 " clip-rule="nonzero"/></clipPath><clipPath id="eafb7e42d2"><path d="M 391.441406 393.949219 L 429.476562 393.949219 L 429.476562 447.859375 L 391.441406 447.859375 Z M 391.441406 393.949219 " clip-rule="nonzero"/></clipPath><clipPath id="1badad5965"><path d="M 398.171875 391.363281 L 422.902344 391.363281 L 422.902344 449.8125 L 398.171875 449.8125 Z M 398.171875 391.363281 " clip-rule="nonzero"/></clipPath></defs><g clip-path="url(#4681b8b97c)"><g clip-path="url(#458a392422)"><path fill="#2d6a4f" d="M 81.140625 353.875 L 513.621094 353.875 L 513.621094 487.265625 L 81.140625 487.265625 Z M 81.140625 353.875 " fill-opacity="1" fill-rule="nonzero"/></g></g><g clip-path="url(#e237ad4184)"><g clip-path="url(#72bb262c43)"><path stroke-linecap="butt" transform="matrix(0.749333, 0, 0, 0.749333, 90.632527, 361.750717)" fill="none" stroke-linejoin="miter" d="M 36.996841 -0.000957239 L 514.82824 -0.000957239 C 524.644265 -0.000957239 534.053679 3.898345 540.992144 10.836811 C 547.930609 17.775276 551.829912 27.184689 551.829912 37.000715 L 551.829912 119.986009 C 551.829912 129.796822 547.930609 139.211448 540.992144 146.149913 C 534.053679 153.088378 524.644265 156.982468 514.82824 156.982468 L 36.996841 156.982468 C 27.186028 156.982468 17.776615 153.088378 10.838149 146.149913 C 3.899684 139.211448 0.000381588 129.796822 0.000381588 119.986009 L 0.000381588 37.000715 C 0.000381588 27.184689 3.899684 17.775276 10.838149 10.836811 C 17.776615 3.898345 27.186028 -0.000957239 36.996841 -0.000957239 Z M 36.996841 -0.000957239 " stroke="#ebe3dc" stroke-width="8" stroke-opacity="1" stroke-miterlimit="4"/></g></g><g fill="#ebe3dc" fill-opacity="1"><g transform="translate(105.237937, 458.786315)"><g><path d="M 51.34375 0 L 41.109375 0 C 40.273438 0 39.757812 -0.445312 39.5625 -1.34375 L 36.859375 -15.4375 L 19.6875 -15.4375 L 17.078125 -1.34375 C 16.890625 -0.445312 16.375 0 15.53125 0 L 5.21875 0 C 4.050781 0 3.628906 -0.546875 3.953125 -1.640625 L 19.96875 -75.84375 C 20.164062 -76.75 20.710938 -77.203125 21.609375 -77.203125 L 35.03125 -77.203125 C 35.925781 -77.203125 36.472656 -76.75 36.671875 -75.84375 L 52.6875 -1.640625 C 52.882812 -0.546875 52.4375 0 51.34375 0 Z M 34.453125 -26.640625 L 28.28125 -60.3125 L 22.09375 -26.640625 Z M 34.453125 -26.640625 "/></g></g></g><g fill="#ebe3dc" fill-opacity="1"><g transform="translate(166.612596, 458.786315)"><g><path d="M 43.421875 -63.296875 L 43.421875 -13.890625 C 43.421875 -7.785156 41.332031 -3.671875 37.15625 -1.546875 L 41.015625 6.75 C 41.273438 7.269531 41.242188 7.6875 40.921875 8 C 40.597656 8.320312 40.175781 8.484375 39.65625 8.484375 L 29.625 8.484375 C 29.175781 8.484375 28.835938 8.351562 28.609375 8.09375 C 28.390625 7.84375 28.179688 7.523438 27.984375 7.140625 L 24.703125 0 L 18.71875 0 C 14.21875 0 10.773438 -1.1875 8.390625 -3.5625 C 6.015625 -5.945312 4.828125 -9.390625 4.828125 -13.890625 L 4.828125 -63.296875 C 4.828125 -67.867188 6.015625 -71.328125 8.390625 -73.671875 C 10.773438 -76.023438 14.21875 -77.203125 18.71875 -77.203125 L 29.53125 -77.203125 C 34.09375 -77.203125 37.546875 -76.023438 39.890625 -73.671875 C 42.242188 -71.328125 43.421875 -67.867188 43.421875 -63.296875 Z M 17.953125 -60.609375 L 17.953125 -16.59375 C 17.953125 -14.019531 19.238281 -12.734375 21.8125 -12.734375 L 26.828125 -12.734375 C 29.398438 -12.734375 30.6875 -14.019531 30.6875 -16.59375 L 30.6875 -60.609375 C 30.6875 -63.179688 29.398438 -64.46875 26.828125 -64.46875 L 21.8125 -64.46875 C 19.238281 -64.46875 17.953125 -63.179688 17.953125 -60.609375 Z M 17.953125 -60.609375 "/></g></g></g><g fill="#ebe3dc" fill-opacity="1"><g transform="translate(219.688249, 458.786315)"><g><path d="M 32.609375 -77.203125 L 41.5 -77.203125 C 42.007812 -77.203125 42.457031 -77.007812 42.84375 -76.625 C 43.226562 -76.238281 43.421875 -75.785156 43.421875 -75.265625 L 43.421875 -13.890625 C 43.421875 -9.390625 42.242188 -5.945312 39.890625 -3.5625 C 37.546875 -1.1875 34.09375 0 29.53125 0 L 18.71875 0 C 14.21875 0 10.773438 -1.1875 8.390625 -3.5625 C 6.015625 -5.945312 4.828125 -9.390625 4.828125 -13.890625 L 4.828125 -75.265625 C 4.828125 -75.785156 5.019531 -76.238281 5.40625 -76.625 C 5.789062 -77.007812 6.238281 -77.203125 6.75 -77.203125 L 16.015625 -77.203125 C 16.535156 -77.203125 16.988281 -77.007812 17.375 -76.625 C 17.757812 -76.238281 17.953125 -75.785156 17.953125 -75.265625 L 17.953125 -16.59375 C 17.953125 -14.019531 19.238281 -12.734375 21.8125 -12.734375 L 26.828125 -12.734375 C 29.398438 -12.734375 30.6875 -14.019531 30.6875 -16.59375 L 30.6875 -75.265625 C 30.6875 -75.785156 30.878906 -76.238281 31.265625 -76.625 C 31.648438 -77.007812 32.097656 -77.203125 32.609375 -77.203125 Z M 32.609375 -77.203125 "/></g></g></g><g fill="#ebe3dc" fill-opacity="1"><g transform="translate(272.763897, 458.786315)"><g><path d="M 51.34375 0 L 41.109375 0 C 40.273438 0 39.757812 -0.445312 39.5625 -1.34375 L 36.859375 -15.4375 L 19.6875 -15.4375 L 17.078125 -1.34375 C 16.890625 -0.445312 16.375 0 15.53125 0 L 5.21875 0 C 4.050781 0 3.628906 -0.546875 3.953125 -1.640625 L 19.96875 -75.84375 C 20.164062 -76.75 20.710938 -77.203125 21.609375 -77.203125 L 35.03125 -77.203125 C 35.925781 -77.203125 36.472656 -76.75 36.671875 -75.84375 L 52.6875 -1.640625 C 52.882812 -0.546875 52.4375 0 51.34375 0 Z M 34.453125 -26.640625 L 28.28125 -60.3125 L 22.09375 -26.640625 Z M 34.453125 -26.640625 "/></g></g></g><g fill="#ebe3dc" fill-opacity="1"><g transform="translate(334.138562, 458.786315)"><g><path d="M 17.953125 -12.734375 L 17.953125 -75.65625 C 17.953125 -76.6875 17.4375 -77.203125 16.40625 -77.203125 L 6.375 -77.203125 C 5.34375 -77.203125 4.828125 -76.6875 4.828125 -75.65625 L 4.828125 -1.546875 C 4.828125 -0.515625 5.34375 0 6.375 0 L 40.921875 0 C 41.941406 0 42.453125 -0.515625 42.453125 -1.546875 L 42.453125 -11.1875 C 42.453125 -12.21875 41.941406 -12.734375 40.921875 -12.734375 Z M 17.953125 -12.734375 "/></g></g></g><g fill="#ebe3dc" fill-opacity="1"><g transform="translate(386.249221, 458.786315)"><g><path d="M 4.828125 -13.890625 L 4.828125 -63.296875 C 4.828125 -67.867188 6.015625 -71.328125 8.390625 -73.671875 C 10.773438 -76.023438 14.21875 -77.203125 18.71875 -77.203125 L 29.53125 -77.203125 C 34.09375 -77.203125 37.546875 -76.023438 39.890625 -73.671875 C 42.242188 -71.328125 43.421875 -67.867188 43.421875 -63.296875 L 43.421875 -13.890625 C 43.421875 -9.390625 42.242188 -5.945312 39.890625 -3.5625 C 37.546875 -1.1875 34.09375 0 29.53125 0 L 18.71875 0 C 14.21875 0 10.773438 -1.1875 8.390625 -3.5625 C 6.015625 -5.945312 4.828125 -9.390625 4.828125 -13.890625 Z M 21.515625 -12.453125 L 27.109375 -12.453125 C 29.679688 -12.453125 30.96875 -13.738281 30.96875 -16.3125 L 30.96875 -60.890625 C 30.96875 -63.460938 29.679688 -64.75 27.109375 -64.75 L 21.515625 -64.75 C 18.941406 -64.75 17.65625 -63.460938 17.65625 -60.890625 L 17.65625 -16.3125 C 17.65625 -13.738281 18.941406 -12.453125 21.515625 -12.453125 Z M 21.515625 -12.453125 "/></g></g></g><g fill="#ebe3dc" fill-opacity="1"><g transform="translate(439.32488, 458.786315)"><g><path d="M 4.828125 -13.890625 L 4.828125 -63.296875 C 4.828125 -67.867188 6.015625 -71.328125 8.390625 -73.671875 C 10.773438 -76.023438 14.21875 -77.203125 18.71875 -77.203125 L 31.453125 -77.203125 C 35.960938 -77.203125 39.40625 -76.023438 41.78125 -73.671875 C 44.164062 -71.328125 45.359375 -67.867188 45.359375 -63.296875 L 45.359375 -53.265625 C 45.359375 -52.234375 44.84375 -51.71875 43.8125 -51.71875 L 34.15625 -51.71875 C 33.125 -51.71875 32.609375 -52.234375 32.609375 -53.265625 L 32.609375 -60.609375 C 32.609375 -63.179688 31.320312 -64.46875 28.75 -64.46875 L 21.8125 -64.46875 C 19.238281 -64.46875 17.953125 -63.179688 17.953125 -60.609375 L 17.953125 -16.59375 C 17.953125 -14.019531 19.238281 -12.734375 21.8125 -12.734375 L 28.75 -12.734375 C 31.320312 -12.734375 32.609375 -14.019531 32.609375 -16.59375 L 32.609375 -29.53125 L 27.59375 -29.53125 C 26.570312 -29.53125 26.0625 -30.046875 26.0625 -31.078125 L 26.0625 -40.71875 C 26.0625 -41.75 26.570312 -42.265625 27.59375 -42.265625 L 43.8125 -42.265625 C 44.84375 -42.265625 45.359375 -41.75 45.359375 -40.71875 L 45.359375 -13.890625 C 45.359375 -9.390625 44.164062 -5.945312 41.78125 -3.5625 C 39.40625 -1.1875 35.960938 0 31.453125 0 L 18.71875 0 C 14.21875 0 10.773438 -1.1875 8.390625 -3.5625 C 6.015625 -5.945312 4.828125 -9.390625 4.828125 -13.890625 Z M 4.828125 -13.890625 "/></g></g></g><g clip-path="url(#eafb7e42d2)"><path fill="#ebe3dc" d="M 391.441406 393.949219 L 429.476562 393.949219 L 429.476562 447.878906 L 391.441406 447.878906 Z M 391.441406 393.949219 " fill-opacity="1" fill-rule="nonzero"/></g><g clip-path="url(#1badad5965)"><path fill="#2d6a4f" d="M 410.78125 391.753906 C 410.792969 392.230469 410.980469 392.683594 410.90625 393.160156 C 410.875 393.167969 410.8125 393.175781 410.78125 393.183594 C 410.597656 392.773438 410.480469 392.320312 410.214844 391.945312 C 410.019531 391.746094 409.789062 391.457031 409.46875 391.59375 C 408.8125 391.742188 408.40625 392.339844 408.050781 392.859375 C 407.617188 393.480469 407.328125 394.175781 406.984375 394.835938 C 406.675781 395.5625 405.535156 396.539062 403.671875 406.402344 C 402.972656 410.039062 402.65625 413.722656 402.542969 413.875 C 402.605469 417.273438 398.738281 420.699219 398.425781 421.746094 C 398.320312 421.90625 398.738281 422.027344 398.738281 422.105469 C 399.355469 422.203125 403.941406 422.480469 404.113281 421.917969 C 404.304688 422.550781 404.28125 423.214844 404.417969 423.859375 C 404.621094 424.917969 406.242188 430.285156 406.875 433.035156 C 407.054688 434.011719 407.019531 435.011719 407.023438 435.996094 C 407.003906 436.949219 406.792969 437.886719 406.554688 438.800781 C 406.238281 439.917969 402.476562 448.910156 402.785156 448.972656 C 405.285156 448.949219 406.976562 447.617188 409.199219 446.664062 C 409.523438 446.632812 409.835938 446.5 410.167969 446.546875 C 411.886719 447.074219 413.371094 449.074219 415.148438 449.566406 C 415.488281 449.5625 415.792969 449.710938 416.105469 449.835938 C 416.128906 449.425781 416.15625 449.011719 416.144531 448.597656 C 416.039062 447.695312 414.707031 442.414062 414.519531 441.601562 C 414.335938 440.808594 413.996094 440.0625 413.800781 439.28125 C 413.695312 438.832031 413.464844 438.433594 413.390625 437.984375 C 413.277344 437.097656 413.164062 436.203125 413.253906 435.304688 C 413.316406 434.679688 413.378906 434.058594 413.511719 433.441406 C 413.613281 432.976562 414.265625 429.53125 414.96875 427.46875 C 415.078125 426.109375 417.175781 420.960938 417.277344 420.476562 C 418.566406 421.269531 419.277344 421.179688 420.8125 421.386719 C 421.351562 421.519531 421.972656 421.542969 422.417969 421.164062 C 422.582031 420.996094 422.589844 420.714844 422.460938 420.523438 C 419.5 417.742188 418.363281 414.617188 417.941406 414.484375 C 418.144531 412.789062 417.96875 411.082031 417.976562 409.382812 C 417.878906 400.03125 412.914062 393.542969 412.585938 392.949219 C 412.332031 392.449219 412.050781 391.914062 411.558594 391.617188 C 411.339844 391.375 410.898438 391.457031 410.78125 391.753906 Z M 410.488281 397.414062 C 410.488281 397.964844 410.039062 398.410156 409.488281 398.410156 C 408.9375 398.410156 408.492188 397.964844 408.492188 397.414062 C 408.492188 396.863281 408.9375 396.414062 409.488281 396.414062 C 410.039062 396.414062 410.488281 396.859375 410.488281 397.414062 Z M 410.488281 397.414062 " fill-opacity="1" fill-rule="nonzero"/></g></svg>